<svg width="39" height="52" viewBox="0 0 39 52" fill="none" xmlns="http://www.w3.org/2000/svg">
<path d="M32.666 27.7874C32.6892 25.836 33.1696 23.9227 34.0625 22.2257C34.9551 20.5285 36.2313 19.1026 37.772 18.0806C36.7931 16.5724 35.502 15.3311 34.0007 14.4556C32.4997 13.5798 30.83 13.094 29.1244 13.0363C25.4861 12.6244 21.9588 15.3855 20.1048 15.3855C18.2148 15.3855 15.3602 13.0772 12.2864 13.1455C10.298 13.2149 8.36038 13.8386 6.66193 14.9563C4.96348 16.0738 3.5623 17.6471 2.5951 19.5228C-1.5953 27.3507 1.5304 38.8552 5.54437 45.1827C7.55265 48.281 9.8998 51.7421 12.9708 51.6194C15.9762 51.4847 17.0986 49.5516 20.7262 49.5516C24.3203 49.5516 25.3733 51.6194 28.5067 51.5413C31.7316 51.4847 33.7632 48.4292 35.7011 45.3015C37.1441 43.0936 38.2545 40.6537 38.991 38.0716C37.1175 37.2166 35.5187 35.7854 34.394 33.9566C33.2693 32.1277 32.6682 29.9821 32.666 27.7874Z" fill="white"/>
<path d="M26.7482 8.87516C28.5064 6.59767 29.3726 3.67039 29.1629 0.714844C26.4767 1.0193 23.9952 2.40456 22.2131 4.59464C21.3419 5.66465 20.6746 6.9093 20.2492 8.25774C19.8241 9.60619 19.6493 11.0318 19.7351 12.4529C21.0786 12.4679 22.4079 12.1537 23.6227 11.5339C24.8376 10.9142 25.9062 10.0052 26.7482 8.87516Z" fill="white"/>
</svg>
