<svg width="42" height="43" viewBox="0 0 42 43" fill="none" xmlns="http://www.w3.org/2000/svg">
<path fill-rule="evenodd" clip-rule="evenodd" d="M21 3.20375C10.4038 3.20375 1.82525 11.7385 1.82525 22.249C1.82525 29.9665 6.4505 36.6078 13.1075 39.595C13.804 39.9083 14.4848 39.784 15.0168 39.385C15.311 39.1559 15.5481 38.8618 15.7096 38.5257C15.8712 38.1896 15.9527 37.8206 15.9477 37.4478V36.4502L13.573 36.1282C13.5554 36.1259 13.5379 36.123 13.5205 36.1195C12.2115 35.864 11.3278 35.4037 10.6803 34.7405C10.136 34.1822 9.8035 33.5138 9.52175 32.9468L9.42375 32.749C9.16334 32.2058 8.87898 31.6745 8.5715 31.1565C8.33525 30.782 8.1515 30.5895 7.9695 30.4688C7.5075 30.1625 7.063 29.6427 7.063 28.9935C7.06142 28.8066 7.10143 28.6218 7.18012 28.4523C7.25882 28.2828 7.37423 28.1329 7.518 28.0135C7.78935 27.7987 8.12752 27.6859 8.4735 27.695C8.862 27.695 9.22775 27.814 9.53225 27.9505C9.84375 28.0905 10.1535 28.276 10.4423 28.4685C11.1458 28.9375 11.8387 29.4923 12.425 30.1765C13.0357 30.887 13.468 31.3385 14.119 31.4312C14.6545 31.5082 15.2005 31.51 15.6257 31.4907C15.6848 31.1541 15.7823 30.8253 15.9163 30.5108C15.3969 30.3895 14.8845 30.24 14.3815 30.0627C13.237 29.6567 11.9612 29.025 11.1037 28.0678C10.1622 27.0143 9.5795 26.0745 9.254 24.9755C8.93725 23.9045 8.88475 22.7443 8.88475 21.3163C8.88475 19.1288 9.8315 17.286 10.542 16.3077C10.269 15.4513 10.0728 14.5722 9.95575 13.681C9.87821 13.119 9.8788 12.5489 9.9575 11.987C10.045 11.4743 10.2637 10.8442 10.8395 10.4645C11.3942 10.0952 12.0452 10.111 12.5527 10.2055C13.0795 10.3053 13.6272 10.524 14.1312 10.7742C14.952 11.1802 15.7675 11.7228 16.3783 12.183C17.4318 11.8733 19.2955 11.4742 20.9808 11.4375H21.0192C22.7062 11.4742 24.486 11.8733 25.5133 12.1813C26.1258 11.7228 26.9395 11.1785 27.7585 10.7742C28.2625 10.524 28.8085 10.3053 29.337 10.2055C29.8445 10.111 30.4955 10.0952 31.052 10.4627C31.626 10.8442 31.8465 11.4743 31.9322 11.987C32.0215 12.5208 32.0005 13.1175 31.9322 13.681C31.8157 14.5722 31.6201 15.4512 31.3478 16.3077C32.0583 17.2877 33.005 19.1305 33.005 21.3163C33.005 22.7443 32.9525 23.9045 32.6375 24.9737C32.3102 26.0762 31.7275 27.0143 30.786 28.0678C29.9285 29.025 28.6527 29.6567 27.5082 30.0627C26.9007 30.2763 26.2799 30.4499 25.6497 30.5825C25.865 31.2335 25.942 31.7602 25.942 32.063V37.4705C25.942 38.293 26.3253 38.9948 26.8695 39.4043C27.398 39.805 28.077 39.9293 28.7735 39.6248C35.4935 36.6638 40.173 30.005 40.173 22.2473C40.173 11.7385 31.598 3.20375 21 3.20375ZM16.583 33.2425C16.128 33.3072 16.5813 33.2425 16.5813 33.2425H16.576L16.562 33.246L16.5113 33.253C16.2513 33.2835 15.9904 33.3051 15.729 33.3178C15.2355 33.3405 14.5582 33.3422 13.8635 33.2425C12.4792 33.0465 11.6375 32.0665 11.0933 31.4295L11.0408 31.37C10.8628 31.1636 10.6717 30.9689 10.4685 30.7872C10.6487 31.1197 10.836 31.4908 11.0373 31.8898L11.0547 31.9248L11.144 32.1068C11.4503 32.7158 11.6515 33.1217 11.9857 33.4612C12.3112 33.7937 12.8187 34.1158 13.8442 34.3188L16.9837 34.744C17.203 34.7737 17.4041 34.8819 17.5496 35.0486C17.695 35.2154 17.7751 35.4292 17.7747 35.6505V37.4478C17.7747 38.8478 17.1185 40.0955 16.1122 40.8515C15.5839 41.2552 14.9555 41.507 14.2946 41.5798C13.6337 41.6525 12.9655 41.5435 12.362 41.2645C5.0785 37.9973 0 30.7225 0 22.249C0 10.713 9.40975 1.375 21 1.375C32.5903 1.375 42 10.713 42 22.249C42 30.7663 36.8568 38.0602 29.5103 41.2995C28.9063 41.5732 28.2392 41.6776 27.5805 41.6015C26.9218 41.5253 26.2961 41.2715 25.7705 40.8672C25.2508 40.4671 24.8309 39.9521 24.5436 39.3624C24.2564 38.7728 24.1097 38.1246 24.115 37.4688V32.0612C24.115 31.9387 24.0293 31.2317 23.5515 30.2815C23.4856 30.1497 23.4523 30.004 23.4546 29.8567C23.457 29.7094 23.4947 29.5648 23.5648 29.4351C23.6348 29.3055 23.7351 29.1947 23.8571 29.112C23.979 29.0293 24.1191 28.9773 24.2655 28.9603C24.8658 28.8938 25.8772 28.6995 26.8975 28.3372C27.937 27.9697 28.8697 27.4658 29.4245 26.8463C30.2487 25.9258 30.66 25.2187 30.8858 24.454C31.1203 23.6612 31.1797 22.739 31.1797 21.3163C31.1797 19.3195 30.1297 17.6413 29.6467 17.1005C29.5371 16.9783 29.4624 16.8288 29.4303 16.6678C29.3983 16.5068 29.4102 16.3401 29.4647 16.1853C29.7097 15.4958 30.0072 14.423 30.121 13.4657C30.177 12.9845 30.1805 12.582 30.1315 12.2915C30.1205 12.1853 30.0884 12.0823 30.037 11.9888C29.9165 11.9679 29.793 11.9733 29.6748 12.0045C29.3773 12.0605 28.9975 12.2005 28.567 12.414C27.7095 12.8375 26.817 13.464 26.264 13.912C26.142 14.0109 25.9966 14.0766 25.8417 14.1027C25.6868 14.1288 25.5279 14.1143 25.3803 14.0608C23.9633 13.5973 22.4895 13.3305 21 13.268C19.2378 13.31 17.2043 13.8105 16.5095 14.0608C16.3619 14.1143 16.2029 14.1288 16.048 14.1027C15.8932 14.0766 15.7477 14.0109 15.6257 13.912C14.9106 13.3362 14.139 12.8344 13.3227 12.414C12.9723 12.2299 12.5993 12.0923 12.2133 12.0045C12.0956 11.9735 11.9727 11.9682 11.8527 11.9888C11.8013 12.0823 11.7692 12.1853 11.7582 12.2915C11.7092 12.582 11.7127 12.9845 11.7687 13.4657C11.8825 14.423 12.1817 15.4958 12.425 16.1853C12.5352 16.5003 12.467 16.8503 12.243 17.1005C11.76 17.6413 10.71 19.3195 10.71 21.3163C10.71 22.7373 10.7695 23.6612 11.004 24.454C11.2315 25.2187 11.641 25.924 12.4635 26.8463C13.02 27.4658 13.951 27.9697 14.9923 28.3372C15.8441 28.6387 16.7259 28.8476 17.6225 28.9603C17.807 28.98 17.981 29.0555 18.1215 29.1767C18.262 29.2978 18.3623 29.4589 18.4091 29.6384C18.4558 29.8179 18.4468 30.0074 18.3832 30.1817C18.3196 30.356 18.2044 30.5068 18.053 30.614C17.7642 30.8205 17.5735 31.1915 17.4667 31.6203C17.4116 31.841 17.3788 32.0667 17.3688 32.294V32.3273C17.371 32.5491 17.2925 32.7643 17.148 32.9326C17.0034 33.101 16.8027 33.2111 16.583 33.2425V33.2425Z" fill="white"/>
</svg>
