<svg width="122" height="152" viewBox="0 0 122 152" fill="none" xmlns="http://www.w3.org/2000/svg">
<path fill-rule="evenodd" clip-rule="evenodd" d="M61 52C75.3595 52 87 40.3595 87 26C87 11.6406 75.3595 0 61 0C46.6406 0 35 11.6406 35 26C35 40.3595 46.6406 52 61 52Z" fill="black"/>
<path d="M52.7569 13.8715L61 13L69.2431 13.8715L75.625 22.4385L61 39.4691L46.375 22.4385L52.7569 13.8715Z" fill="#FDB300"/>
<path d="M52.2988 22.4385L61 39.4691L46.375 22.4385H52.2988Z" fill="#EA6C00"/>
<path d="M69.7012 22.4385L61 39.4691L75.625 22.4385H69.7012Z" fill="#EA6C00"/>
<path d="M52.299 22.4385H69.7012L61.0002 39.4691L52.299 22.4385Z" fill="#FDAD00"/>
<path d="M61.0002 13L52.7569 13.8715L52.299 22.4385L61.0002 13Z" fill="#FDD231"/>
<path d="M61.0015 13L69.2448 13.8715L69.7027 22.4385L61.0015 13Z" fill="#FDD231"/>
<path d="M75.625 22.4386L69.2432 13.8716L69.7013 22.4386H75.625Z" fill="#FDAD00"/>
<path d="M46.375 22.4386L52.7569 13.8716L52.2988 22.4386H46.375Z" fill="#FDAD00"/>
<path d="M61.0002 13L52.299 22.4385H69.7012L61.0002 13Z" fill="#FEEEB7"/>
<g filter="url(#filter0_d_429_6)">
<circle cx="61" cy="91" r="60" fill="url(#paint0_linear_429_6)" shape-rendering="crispEdges"/>
</g>
<path d="M32.1591 82.504C32.4051 82.456 32.6421 82.423 32.8701 82.405C33.0981 82.387 33.3201 82.378 33.5361 82.378C34.2261 82.378 34.8351 82.483 35.3631 82.693C35.8911 82.903 36.3351 83.191 36.6951 83.557C37.0551 83.917 37.3251 84.343 37.5051 84.835C37.6911 85.321 37.7841 85.843 37.7841 86.401C37.7841 87.103 37.6581 87.745 37.4061 88.327C37.1601 88.903 36.8151 89.401 36.3711 89.821C35.9271 90.241 35.3961 90.568 34.7781 90.802C34.1661 91.03 33.4941 91.144 32.7621 91.144C32.3361 91.144 31.9281 91.099 31.5381 91.009C31.1541 90.919 30.7911 90.799 30.4491 90.649C30.1131 90.493 29.8011 90.316 29.5131 90.118C29.2251 89.914 28.9641 89.698 28.7301 89.47L29.5941 88.318C29.6841 88.198 29.7891 88.108 29.9091 88.048C30.0291 87.982 30.1581 87.949 30.2961 87.949C30.4761 87.949 30.6441 88 30.8001 88.102C30.9621 88.198 31.1361 88.306 31.3221 88.426C31.5141 88.54 31.7361 88.645 31.9881 88.741C32.2401 88.837 32.5521 88.885 32.9241 88.885C33.2961 88.885 33.6141 88.825 33.8781 88.705C34.1421 88.579 34.3551 88.411 34.5171 88.201C34.6851 87.985 34.8051 87.736 34.8771 87.454C34.9551 87.166 34.9941 86.86 34.9941 86.536C34.9941 85.9 34.8141 85.417 34.4541 85.087C34.0941 84.751 33.5841 84.583 32.9241 84.583C32.3361 84.583 31.7601 84.694 31.1961 84.916L29.4681 84.448L30.5841 77.887H37.2981V79.039C37.2981 79.231 37.2681 79.405 37.2081 79.561C37.1481 79.717 37.0521 79.855 36.9201 79.975C36.7941 80.089 36.6261 80.179 36.4161 80.245C36.2061 80.305 35.9541 80.335 35.6601 80.335H32.5281L32.1591 82.504ZM48.6845 84.439C48.6845 85.585 48.5615 86.578 48.3155 87.418C48.0695 88.258 47.7275 88.954 47.2895 89.506C46.8575 90.058 46.3415 90.469 45.7415 90.739C45.1475 91.009 44.5025 91.144 43.8065 91.144C43.1105 91.144 42.4655 91.009 41.8715 90.739C41.2835 90.469 40.7735 90.058 40.3415 89.506C39.9095 88.954 39.5705 88.258 39.3245 87.418C39.0845 86.578 38.9645 85.585 38.9645 84.439C38.9645 83.293 39.0845 82.3 39.3245 81.46C39.5705 80.62 39.9095 79.924 40.3415 79.372C40.7735 78.82 41.2835 78.412 41.8715 78.148C42.4655 77.878 43.1105 77.743 43.8065 77.743C44.5025 77.743 45.1475 77.878 45.7415 78.148C46.3415 78.412 46.8575 78.82 47.2895 79.372C47.7275 79.924 48.0695 80.62 48.3155 81.46C48.5615 82.3 48.6845 83.293 48.6845 84.439ZM45.8045 84.439C45.8045 83.533 45.7475 82.792 45.6335 82.216C45.5195 81.634 45.3665 81.178 45.1745 80.848C44.9885 80.518 44.7755 80.293 44.5355 80.173C44.2955 80.047 44.0525 79.984 43.8065 79.984C43.5605 79.984 43.3175 80.047 43.0775 80.173C42.8435 80.293 42.6335 80.518 42.4475 80.848C42.2675 81.178 42.1205 81.634 42.0065 82.216C41.8985 82.792 41.8445 83.533 41.8445 84.439C41.8445 85.351 41.8985 86.095 42.0065 86.671C42.1205 87.247 42.2675 87.703 42.4475 88.039C42.6335 88.369 42.8435 88.597 43.0775 88.723C43.3175 88.843 43.5605 88.903 43.8065 88.903C44.0525 88.903 44.2955 88.843 44.5355 88.723C44.7755 88.597 44.9885 88.369 45.1745 88.039C45.3665 87.703 45.5195 87.247 45.6335 86.671C45.7475 86.095 45.8045 85.351 45.8045 84.439ZM55.9399 81.064C55.9399 81.544 55.8529 81.982 55.6789 82.378C55.5049 82.774 55.2739 83.116 54.9859 83.404C54.6979 83.686 54.3619 83.905 53.9779 84.061C53.5999 84.217 53.2039 84.295 52.7899 84.295C52.3339 84.295 51.9139 84.217 51.5299 84.061C51.1519 83.905 50.8219 83.686 50.5399 83.404C50.2639 83.116 50.0479 82.774 49.8919 82.378C49.7359 81.982 49.6579 81.544 49.6579 81.064C49.6579 80.566 49.7359 80.116 49.8919 79.714C50.0479 79.306 50.2639 78.958 50.5399 78.67C50.8219 78.382 51.1519 78.16 51.5299 78.004C51.9139 77.842 52.3339 77.761 52.7899 77.761C53.2459 77.761 53.6659 77.842 54.0499 78.004C54.4399 78.16 54.7729 78.382 55.0489 78.67C55.3309 78.958 55.5499 79.306 55.7059 79.714C55.8619 80.116 55.9399 80.566 55.9399 81.064ZM53.7979 81.064C53.7979 80.758 53.7709 80.506 53.7169 80.308C53.6689 80.104 53.5999 79.942 53.5099 79.822C53.4199 79.702 53.3119 79.618 53.1859 79.57C53.0659 79.522 52.9339 79.498 52.7899 79.498C52.6459 79.498 52.5139 79.522 52.3939 79.57C52.2739 79.618 52.1719 79.702 52.0879 79.822C52.0039 79.942 51.9379 80.104 51.8899 80.308C51.8419 80.506 51.8179 80.758 51.8179 81.064C51.8179 81.352 51.8419 81.592 51.8899 81.784C51.9379 81.976 52.0039 82.129 52.0879 82.243C52.1719 82.357 52.2739 82.438 52.3939 82.486C52.5139 82.534 52.6459 82.558 52.7899 82.558C52.9339 82.558 53.0659 82.534 53.1859 82.486C53.3119 82.438 53.4199 82.357 53.5099 82.243C53.5999 82.129 53.6689 81.976 53.7169 81.784C53.7709 81.592 53.7979 81.352 53.7979 81.064ZM60.0619 78.301C60.1519 78.199 60.2629 78.106 60.3949 78.022C60.5269 77.932 60.7099 77.887 60.9439 77.887H62.9779L53.0959 90.604C53.0059 90.718 52.8919 90.814 52.7539 90.892C52.6219 90.964 52.4599 91 52.2679 91H50.1799L60.0619 78.301ZM63.4819 87.922C63.4819 88.402 63.3949 88.843 63.2209 89.245C63.0469 89.641 62.8159 89.983 62.5279 90.271C62.2399 90.553 61.9039 90.772 61.5199 90.928C61.1419 91.084 60.7459 91.162 60.3319 91.162C59.8759 91.162 59.4559 91.084 59.0719 90.928C58.6939 90.772 58.3639 90.553 58.0819 90.271C57.8059 89.983 57.5899 89.641 57.4339 89.245C57.2779 88.843 57.1999 88.402 57.1999 87.922C57.1999 87.424 57.2779 86.974 57.4339 86.572C57.5899 86.164 57.8059 85.816 58.0819 85.528C58.3639 85.24 58.6939 85.018 59.0719 84.862C59.4559 84.7 59.8759 84.619 60.3319 84.619C60.7879 84.619 61.2079 84.7 61.5919 84.862C61.9819 85.018 62.3149 85.24 62.5909 85.528C62.8729 85.816 63.0919 86.164 63.2479 86.572C63.4039 86.974 63.4819 87.424 63.4819 87.922ZM61.3399 87.922C61.3399 87.622 61.3129 87.373 61.2589 87.175C61.2109 86.971 61.1419 86.809 61.0519 86.689C60.9619 86.569 60.8539 86.485 60.7279 86.437C60.6079 86.389 60.4759 86.365 60.3319 86.365C60.1879 86.365 60.0559 86.389 59.9359 86.437C59.8159 86.485 59.7139 86.569 59.6299 86.689C59.5459 86.809 59.4799 86.971 59.4319 87.175C59.3839 87.373 59.3599 87.622 59.3599 87.922C59.3599 88.21 59.3839 88.45 59.4319 88.642C59.4799 88.834 59.5459 88.987 59.6299 89.101C59.7139 89.215 59.8159 89.296 59.9359 89.344C60.0559 89.392 60.1879 89.416 60.3319 89.416C60.4759 89.416 60.6079 89.392 60.7279 89.344C60.8539 89.296 60.9619 89.215 61.0519 89.101C61.1419 88.987 61.2109 88.834 61.2589 88.642C61.3129 88.45 61.3399 88.21 61.3399 87.922ZM73.5058 81.523C74.2138 81.523 74.8588 81.634 75.4408 81.856C76.0228 82.078 76.5208 82.396 76.9348 82.81C77.3548 83.224 77.6788 83.728 77.9068 84.322C78.1408 84.91 78.2578 85.573 78.2578 86.311C78.2578 87.055 78.1408 87.727 77.9068 88.327C77.6788 88.921 77.3548 89.428 76.9348 89.848C76.5208 90.262 76.0228 90.583 75.4408 90.811C74.8588 91.033 74.2138 91.144 73.5058 91.144C72.7918 91.144 72.1408 91.033 71.5528 90.811C70.9708 90.583 70.4668 90.262 70.0408 89.848C69.6208 89.428 69.2938 88.921 69.0598 88.327C68.8318 87.727 68.7178 87.055 68.7178 86.311C68.7178 85.573 68.8318 84.91 69.0598 84.322C69.2938 83.728 69.6208 83.224 70.0408 82.81C70.4668 82.396 70.9708 82.078 71.5528 81.856C72.1408 81.634 72.7918 81.523 73.5058 81.523ZM73.5058 89.074C74.1478 89.074 74.6188 88.849 74.9188 88.399C75.2248 87.943 75.3778 87.253 75.3778 86.329C75.3778 85.405 75.2248 84.718 74.9188 84.268C74.6188 83.818 74.1478 83.593 73.5058 83.593C72.8458 83.593 72.3628 83.818 72.0568 84.268C71.7508 84.718 71.5978 85.405 71.5978 86.329C71.5978 87.253 71.7508 87.943 72.0568 88.399C72.3628 88.849 72.8458 89.074 73.5058 89.074ZM80.0921 91V83.584L79.4801 83.458C79.2701 83.41 79.0991 83.335 78.9671 83.233C78.8411 83.131 78.7781 82.981 78.7781 82.783V81.685H80.0921V81.334C80.0921 80.8 80.1761 80.317 80.3441 79.885C80.5181 79.447 80.7641 79.075 81.0821 78.769C81.4061 78.463 81.7991 78.229 82.2611 78.067C82.7231 77.899 83.2481 77.815 83.8361 77.815C84.0641 77.815 84.2741 77.83 84.4661 77.86C84.6581 77.884 84.8591 77.923 85.0691 77.977L85.0151 79.336C85.0031 79.528 84.9221 79.663 84.7721 79.741C84.6281 79.813 84.4781 79.849 84.3221 79.849C84.0761 79.849 83.8571 79.873 83.6651 79.921C83.4731 79.969 83.3111 80.053 83.1791 80.173C83.0531 80.293 82.9571 80.455 82.8911 80.659C82.8251 80.857 82.7921 81.109 82.7921 81.415V81.685H86.0681V80.983C86.0681 80.449 86.1521 79.966 86.3201 79.534C86.4941 79.102 86.7401 78.733 87.0581 78.427C87.3821 78.121 87.7751 77.884 88.2371 77.716C88.6991 77.548 89.2241 77.464 89.8121 77.464C90.0401 77.464 90.2501 77.479 90.4421 77.509C90.6341 77.533 90.8351 77.575 91.0451 77.635L90.9911 78.994C90.9851 79.09 90.9611 79.171 90.9191 79.237C90.8771 79.297 90.8201 79.348 90.7481 79.39C90.6821 79.426 90.6101 79.453 90.5321 79.471C90.4541 79.489 90.3761 79.498 90.2981 79.498C90.0521 79.498 89.8331 79.522 89.6411 79.57C89.4491 79.618 89.2871 79.705 89.1551 79.831C89.0291 79.951 88.9331 80.113 88.8671 80.317C88.8011 80.515 88.7681 80.767 88.7681 81.073V81.685H90.9551V83.593H88.8581V91H86.0681V83.593H82.8821V91H80.0921ZM33.8734 102.551C33.7834 102.695 33.6874 102.803 33.5854 102.875C33.4894 102.947 33.3634 102.983 33.2074 102.983C33.0694 102.983 32.9194 102.941 32.7574 102.857C32.6014 102.767 32.4214 102.668 32.2174 102.56C32.0194 102.452 31.7914 102.356 31.5334 102.272C31.2754 102.182 30.9814 102.137 30.6514 102.137C30.0814 102.137 29.6554 102.26 29.3734 102.506C29.0974 102.746 28.9594 103.073 28.9594 103.487C28.9594 103.751 29.0434 103.97 29.2114 104.144C29.3794 104.318 29.5984 104.468 29.8684 104.594C30.1444 104.72 30.4564 104.837 30.8044 104.945C31.1584 105.047 31.5184 105.164 31.8844 105.296C32.2504 105.422 32.6074 105.572 32.9554 105.746C33.3094 105.92 33.6214 106.142 33.8914 106.412C34.1674 106.682 34.3894 107.012 34.5574 107.402C34.7254 107.786 34.8094 108.251 34.8094 108.797C34.8094 109.403 34.7044 109.97 34.4944 110.498C34.2844 111.026 33.9784 111.488 33.5764 111.884C33.1804 112.274 32.6884 112.583 32.1004 112.811C31.5184 113.033 30.8554 113.144 30.1114 113.144C29.7034 113.144 29.2864 113.102 28.8604 113.018C28.4404 112.934 28.0324 112.817 27.6364 112.667C27.2404 112.511 26.8684 112.328 26.5204 112.118C26.1724 111.908 25.8694 111.674 25.6114 111.416L26.5114 109.994C26.5834 109.892 26.6764 109.808 26.7904 109.742C26.9104 109.67 27.0394 109.634 27.1774 109.634C27.3574 109.634 27.5374 109.691 27.7174 109.805C27.9034 109.919 28.1104 110.045 28.3384 110.183C28.5724 110.321 28.8394 110.447 29.1394 110.561C29.4394 110.675 29.7934 110.732 30.2014 110.732C30.7534 110.732 31.1824 110.612 31.4884 110.372C31.7944 110.126 31.9474 109.739 31.9474 109.211C31.9474 108.905 31.8634 108.656 31.6954 108.464C31.5274 108.272 31.3054 108.113 31.0294 107.987C30.7594 107.861 30.4504 107.75 30.1024 107.654C29.7544 107.558 29.3974 107.453 29.0314 107.339C28.6654 107.219 28.3084 107.075 27.9604 106.907C27.6124 106.733 27.3004 106.508 27.0244 106.232C26.7544 105.95 26.5354 105.602 26.3674 105.188C26.1994 104.768 26.1154 104.252 26.1154 103.64C26.1154 103.148 26.2144 102.668 26.4124 102.2C26.6104 101.732 26.9014 101.315 27.2854 100.949C27.6694 100.583 28.1404 100.292 28.6984 100.076C29.2564 99.854 29.8954 99.743 30.6154 99.743C31.0174 99.743 31.4074 99.776 31.7854 99.842C32.1694 99.902 32.5324 99.995 32.8744 100.121C33.2164 100.241 33.5344 100.388 33.8284 100.562C34.1284 100.73 34.3954 100.922 34.6294 101.138L33.8734 102.551ZM38.9557 104.486C39.2917 104.198 39.6547 103.967 40.0447 103.793C40.4407 103.613 40.9117 103.523 41.4577 103.523C41.9677 103.523 42.4177 103.613 42.8077 103.793C43.2037 103.967 43.5367 104.213 43.8067 104.531C44.0767 104.843 44.2807 105.218 44.4187 105.656C44.5567 106.088 44.6257 106.559 44.6257 107.069V113H41.8357V107.069C41.8357 106.613 41.7307 106.259 41.5207 106.007C41.3107 105.749 41.0017 105.62 40.5937 105.62C40.2877 105.62 39.9997 105.686 39.7297 105.818C39.4657 105.944 39.2077 106.118 38.9557 106.34V113H36.1657V99.527H38.9557V104.486ZM51.2463 109.202C50.6883 109.226 50.2293 109.274 49.8693 109.346C49.5093 109.418 49.2243 109.508 49.0143 109.616C48.8043 109.724 48.6573 109.847 48.5733 109.985C48.4953 110.123 48.4563 110.273 48.4563 110.435C48.4563 110.753 48.5433 110.978 48.7173 111.11C48.8913 111.236 49.1463 111.299 49.4823 111.299C49.8423 111.299 50.1573 111.236 50.4273 111.11C50.6973 110.984 50.9703 110.78 51.2463 110.498V109.202ZM46.2243 104.963C46.7883 104.465 47.4123 104.096 48.0963 103.856C48.7863 103.61 49.5243 103.487 50.3103 103.487C50.8743 103.487 51.3813 103.58 51.8313 103.766C52.2873 103.946 52.6713 104.201 52.9833 104.531C53.3013 104.855 53.5443 105.242 53.7123 105.692C53.8803 106.142 53.9643 106.634 53.9643 107.168V113H52.6863C52.4223 113 52.2213 112.964 52.0833 112.892C51.9513 112.82 51.8403 112.67 51.7503 112.442L51.5523 111.929C51.3183 112.127 51.0933 112.301 50.8773 112.451C50.6613 112.601 50.4363 112.73 50.2023 112.838C49.9743 112.94 49.7283 113.015 49.4643 113.063C49.2063 113.117 48.9183 113.144 48.6003 113.144C48.1743 113.144 47.7873 113.09 47.4393 112.982C47.0913 112.868 46.7943 112.703 46.5483 112.487C46.3083 112.271 46.1223 112.004 45.9903 111.686C45.8583 111.362 45.7923 110.99 45.7923 110.57C45.7923 110.234 45.8763 109.895 46.0443 109.553C46.2123 109.205 46.5033 108.89 46.9173 108.608C47.3313 108.32 47.8893 108.08 48.5913 107.888C49.2933 107.696 50.1783 107.588 51.2463 107.564V107.168C51.2463 106.622 51.1323 106.229 50.9043 105.989C50.6823 105.743 50.3643 105.62 49.9503 105.62C49.6203 105.62 49.3503 105.656 49.1403 105.728C48.9303 105.8 48.7413 105.881 48.5733 105.971C48.4113 106.061 48.2523 106.142 48.0963 106.214C47.9403 106.286 47.7543 106.322 47.5383 106.322C47.3463 106.322 47.1843 106.274 47.0523 106.178C46.9203 106.082 46.8123 105.968 46.7283 105.836L46.2243 104.963ZM58.5377 110.462C58.7477 110.69 58.9757 110.852 59.2217 110.948C59.4677 111.044 59.7257 111.092 59.9957 111.092C60.2537 111.092 60.4907 111.041 60.7067 110.939C60.9227 110.837 61.1087 110.675 61.2647 110.453C61.4267 110.225 61.5527 109.931 61.6427 109.571C61.7327 109.211 61.7777 108.773 61.7777 108.257C61.7777 107.765 61.7417 107.351 61.6697 107.015C61.5977 106.679 61.4957 106.409 61.3637 106.205C61.2377 105.995 61.0847 105.845 60.9047 105.755C60.7247 105.665 60.5237 105.62 60.3017 105.62C59.8937 105.62 59.5577 105.695 59.2937 105.845C59.0297 105.995 58.7777 106.214 58.5377 106.502V110.462ZM58.3667 104.819C58.7327 104.429 59.1467 104.111 59.6087 103.865C60.0767 103.613 60.6317 103.487 61.2737 103.487C61.7597 103.487 62.2097 103.595 62.6237 103.811C63.0377 104.027 63.3947 104.339 63.6947 104.747C63.9947 105.155 64.2287 105.656 64.3967 106.25C64.5707 106.838 64.6577 107.507 64.6577 108.257C64.6577 108.959 64.5587 109.607 64.3607 110.201C64.1687 110.795 63.8957 111.311 63.5417 111.749C63.1937 112.187 62.7737 112.529 62.2817 112.775C61.7957 113.021 61.2557 113.144 60.6617 113.144C60.1757 113.144 59.7677 113.075 59.4377 112.937C59.1077 112.799 58.8077 112.613 58.5377 112.379V115.961H55.7477V103.667H57.4757C57.8237 103.667 58.0517 103.823 58.1597 104.135L58.3667 104.819ZM71.9063 107.213C71.9063 106.991 71.8763 106.775 71.8163 106.565C71.7623 106.355 71.6693 106.169 71.5373 106.007C71.4113 105.839 71.2433 105.704 71.0333 105.602C70.8233 105.5 70.5683 105.449 70.2683 105.449C69.7403 105.449 69.3263 105.602 69.0263 105.908C68.7263 106.208 68.5283 106.643 68.4323 107.213H71.9063ZM68.3963 108.833C68.4863 109.613 68.7233 110.18 69.1073 110.534C69.4913 110.882 69.9863 111.056 70.5923 111.056C70.9163 111.056 71.1953 111.017 71.4293 110.939C71.6633 110.861 71.8703 110.774 72.0503 110.678C72.2363 110.582 72.4043 110.495 72.5543 110.417C72.7103 110.339 72.8723 110.3 73.0403 110.3C73.2623 110.3 73.4303 110.381 73.5443 110.543L74.3543 111.542C74.0663 111.872 73.7543 112.142 73.4183 112.352C73.0883 112.556 72.7463 112.718 72.3923 112.838C72.0443 112.952 71.6933 113.03 71.3393 113.072C70.9913 113.12 70.6583 113.144 70.3403 113.144C69.6863 113.144 69.0713 113.039 68.4953 112.829C67.9253 112.613 67.4243 112.295 66.9923 111.875C66.5663 111.455 66.2273 110.933 65.9753 110.309C65.7293 109.685 65.6063 108.959 65.6063 108.131C65.6063 107.507 65.7113 106.916 65.9213 106.358C66.1373 105.8 66.4433 105.311 66.8393 104.891C67.2413 104.471 67.7243 104.138 68.2883 103.892C68.8583 103.646 69.5003 103.523 70.2143 103.523C70.8323 103.523 71.3963 103.619 71.9063 103.811C72.4223 104.003 72.8633 104.282 73.2293 104.648C73.6013 105.014 73.8893 105.464 74.0933 105.998C74.3033 106.526 74.4082 107.126 74.4082 107.798C74.4082 108.008 74.3993 108.179 74.3813 108.311C74.3633 108.443 74.3303 108.548 74.2823 108.626C74.2343 108.704 74.1683 108.758 74.0843 108.788C74.0063 108.818 73.9043 108.833 73.7783 108.833H68.3963ZM75.4264 111.587C75.4264 111.371 75.4654 111.17 75.5434 110.984C75.6274 110.798 75.7384 110.636 75.8764 110.498C76.0204 110.36 76.1884 110.252 76.3804 110.174C76.5724 110.09 76.7824 110.048 77.0104 110.048C77.2324 110.048 77.4394 110.09 77.6314 110.174C77.8234 110.252 77.9914 110.36 78.1354 110.498C78.2794 110.636 78.3904 110.798 78.4684 110.984C78.5524 111.17 78.5944 111.371 78.5944 111.587C78.5944 111.803 78.5524 112.007 78.4684 112.199C78.3904 112.385 78.2794 112.547 78.1354 112.685C77.9914 112.823 77.8234 112.931 77.6314 113.009C77.4394 113.087 77.2324 113.126 77.0104 113.126C76.7824 113.126 76.5724 113.087 76.3804 113.009C76.1884 112.931 76.0204 112.823 75.8764 112.685C75.7384 112.547 75.6274 112.385 75.5434 112.199C75.4654 112.007 75.4264 111.803 75.4264 111.587ZM86.042 105.71C85.97 105.824 85.892 105.905 85.808 105.953C85.73 106.001 85.628 106.025 85.502 106.025C85.37 106.025 85.238 105.998 85.106 105.944C84.974 105.884 84.83 105.821 84.674 105.755C84.524 105.689 84.353 105.629 84.161 105.575C83.969 105.515 83.75 105.485 83.504 105.485C83.15 105.485 82.877 105.554 82.685 105.692C82.499 105.824 82.406 106.01 82.406 106.25C82.406 106.424 82.466 106.568 82.586 106.682C82.712 106.796 82.877 106.898 83.081 106.988C83.285 107.072 83.516 107.153 83.774 107.231C84.032 107.309 84.296 107.396 84.566 107.492C84.836 107.588 85.1 107.702 85.358 107.834C85.616 107.96 85.847 108.119 86.051 108.311C86.255 108.497 86.417 108.725 86.537 108.995C86.663 109.265 86.726 109.589 86.726 109.967C86.726 110.429 86.642 110.855 86.474 111.245C86.306 111.635 86.054 111.971 85.718 112.253C85.388 112.535 84.977 112.754 84.485 112.91C83.999 113.066 83.438 113.144 82.802 113.144C82.484 113.144 82.166 113.114 81.848 113.054C81.53 112.994 81.221 112.913 80.921 112.811C80.627 112.709 80.354 112.589 80.102 112.451C79.85 112.307 79.634 112.154 79.454 111.992L80.102 110.966C80.174 110.846 80.264 110.753 80.372 110.687C80.486 110.615 80.63 110.579 80.804 110.579C80.966 110.579 81.11 110.615 81.236 110.687C81.368 110.759 81.509 110.837 81.659 110.921C81.809 111.005 81.983 111.083 82.181 111.155C82.385 111.227 82.64 111.263 82.946 111.263C83.162 111.263 83.345 111.242 83.495 111.2C83.645 111.152 83.765 111.089 83.855 111.011C83.945 110.933 84.011 110.846 84.053 110.75C84.095 110.654 84.116 110.555 84.116 110.453C84.116 110.267 84.053 110.114 83.927 109.994C83.801 109.874 83.636 109.772 83.432 109.688C83.228 109.598 82.994 109.517 82.73 109.445C82.472 109.367 82.208 109.28 81.938 109.184C81.668 109.088 81.401 108.974 81.137 108.842C80.879 108.704 80.648 108.533 80.444 108.329C80.24 108.119 80.075 107.864 79.949 107.564C79.823 107.264 79.76 106.901 79.76 106.475C79.76 106.079 79.835 105.704 79.985 105.35C80.141 104.99 80.372 104.675 80.678 104.405C80.984 104.135 81.368 103.922 81.83 103.766C82.292 103.604 82.832 103.523 83.45 103.523C83.786 103.523 84.11 103.553 84.422 103.613C84.74 103.673 85.037 103.757 85.313 103.865C85.589 103.973 85.841 104.102 86.069 104.252C86.297 104.396 86.498 104.555 86.672 104.729L86.042 105.71ZM92.4286 103.523C93.1366 103.523 93.7816 103.634 94.3636 103.856C94.9456 104.078 95.4436 104.396 95.8576 104.81C96.2776 105.224 96.6016 105.728 96.8296 106.322C97.0636 106.91 97.1806 107.573 97.1806 108.311C97.1806 109.055 97.0636 109.727 96.8296 110.327C96.6016 110.921 96.2776 111.428 95.8576 111.848C95.4436 112.262 94.9456 112.583 94.3636 112.811C93.7816 113.033 93.1366 113.144 92.4286 113.144C91.7146 113.144 91.0636 113.033 90.4756 112.811C89.8936 112.583 89.3896 112.262 88.9636 111.848C88.5436 111.428 88.2166 110.921 87.9826 110.327C87.7546 109.727 87.6406 109.055 87.6406 108.311C87.6406 107.573 87.7546 106.91 87.9826 106.322C88.2166 105.728 88.5436 105.224 88.9636 104.81C89.3896 104.396 89.8936 104.078 90.4756 103.856C91.0636 103.634 91.7146 103.523 92.4286 103.523ZM92.4286 111.074C93.0706 111.074 93.5416 110.849 93.8416 110.399C94.1476 109.943 94.3006 109.253 94.3006 108.329C94.3006 107.405 94.1476 106.718 93.8416 106.268C93.5416 105.818 93.0706 105.593 92.4286 105.593C91.7686 105.593 91.2856 105.818 90.9796 106.268C90.6736 106.718 90.5206 107.405 90.5206 108.329C90.5206 109.253 90.6736 109.943 90.9796 110.399C91.2856 110.849 91.7686 111.074 92.4286 111.074Z" fill="white"/>
<defs>
<filter id="filter0_d_429_6" x="0.5" y="30.5" width="121" height="121" filterUnits="userSpaceOnUse" color-interpolation-filters="sRGB">
<feFlood flood-opacity="0" result="BackgroundImageFix"/>
<feColorMatrix in="SourceAlpha" type="matrix" values="0 0 0 0 0 0 0 0 0 0 0 0 0 0 0 0 0 0 127 0" result="hardAlpha"/>
<feMorphology radius="0.5" operator="dilate" in="SourceAlpha" result="effect1_dropShadow_429_6"/>
<feOffset/>
<feComposite in2="hardAlpha" operator="out"/>
<feColorMatrix type="matrix" values="0 0 0 0 1 0 0 0 0 1 0 0 0 0 1 0 0 0 0.21 0"/>
<feBlend mode="normal" in2="BackgroundImageFix" result="effect1_dropShadow_429_6"/>
<feBlend mode="normal" in="SourceGraphic" in2="effect1_dropShadow_429_6" result="shape"/>
</filter>
<linearGradient id="paint0_linear_429_6" x1="61" y1="31" x2="61" y2="151" gradientUnits="userSpaceOnUse">
<stop stop-color="#1820FF" stop-opacity="0.19"/>
<stop offset="1" stop-color="#18204F" stop-opacity="0.74"/>
</linearGradient>
</defs>
</svg>
