<svg width="122" height="148" viewBox="0 0 122 148" fill="none" xmlns="http://www.w3.org/2000/svg">
<g filter="url(#filter0_d_429_5)">
<circle cx="61" cy="87" r="60" fill="url(#paint0_linear_429_5)" shape-rendering="crispEdges"/>
</g>
<path d="M32.1591 78.504C32.4051 78.456 32.6421 78.423 32.8701 78.405C33.0981 78.387 33.3201 78.378 33.5361 78.378C34.2261 78.378 34.8351 78.483 35.3631 78.693C35.8911 78.903 36.3351 79.191 36.6951 79.557C37.0551 79.917 37.3251 80.343 37.5051 80.835C37.6911 81.321 37.7841 81.843 37.7841 82.401C37.7841 83.103 37.6581 83.745 37.4061 84.327C37.1601 84.903 36.8151 85.401 36.3711 85.821C35.9271 86.241 35.3961 86.568 34.7781 86.802C34.1661 87.03 33.4941 87.144 32.7621 87.144C32.3361 87.144 31.9281 87.099 31.5381 87.009C31.1541 86.919 30.7911 86.799 30.4491 86.649C30.1131 86.493 29.8011 86.316 29.5131 86.118C29.2251 85.914 28.9641 85.698 28.7301 85.47L29.5941 84.318C29.6841 84.198 29.7891 84.108 29.9091 84.048C30.0291 83.982 30.1581 83.949 30.2961 83.949C30.4761 83.949 30.6441 84 30.8001 84.102C30.9621 84.198 31.1361 84.306 31.3221 84.426C31.5141 84.54 31.7361 84.645 31.9881 84.741C32.2401 84.837 32.5521 84.885 32.9241 84.885C33.2961 84.885 33.6141 84.825 33.8781 84.705C34.1421 84.579 34.3551 84.411 34.5171 84.201C34.6851 83.985 34.8051 83.736 34.8771 83.454C34.9551 83.166 34.9941 82.86 34.9941 82.536C34.9941 81.9 34.8141 81.417 34.4541 81.087C34.0941 80.751 33.5841 80.583 32.9241 80.583C32.3361 80.583 31.7601 80.694 31.1961 80.916L29.4681 80.448L30.5841 73.887H37.2981V75.039C37.2981 75.231 37.2681 75.405 37.2081 75.561C37.1481 75.717 37.0521 75.855 36.9201 75.975C36.7941 76.089 36.6261 76.179 36.4161 76.245C36.2061 76.305 35.9541 76.335 35.6601 76.335H32.5281L32.1591 78.504ZM48.6845 80.439C48.6845 81.585 48.5615 82.578 48.3155 83.418C48.0695 84.258 47.7275 84.954 47.2895 85.506C46.8575 86.058 46.3415 86.469 45.7415 86.739C45.1475 87.009 44.5025 87.144 43.8065 87.144C43.1105 87.144 42.4655 87.009 41.8715 86.739C41.2835 86.469 40.7735 86.058 40.3415 85.506C39.9095 84.954 39.5705 84.258 39.3245 83.418C39.0845 82.578 38.9645 81.585 38.9645 80.439C38.9645 79.293 39.0845 78.3 39.3245 77.46C39.5705 76.62 39.9095 75.924 40.3415 75.372C40.7735 74.82 41.2835 74.412 41.8715 74.148C42.4655 73.878 43.1105 73.743 43.8065 73.743C44.5025 73.743 45.1475 73.878 45.7415 74.148C46.3415 74.412 46.8575 74.82 47.2895 75.372C47.7275 75.924 48.0695 76.62 48.3155 77.46C48.5615 78.3 48.6845 79.293 48.6845 80.439ZM45.8045 80.439C45.8045 79.533 45.7475 78.792 45.6335 78.216C45.5195 77.634 45.3665 77.178 45.1745 76.848C44.9885 76.518 44.7755 76.293 44.5355 76.173C44.2955 76.047 44.0525 75.984 43.8065 75.984C43.5605 75.984 43.3175 76.047 43.0775 76.173C42.8435 76.293 42.6335 76.518 42.4475 76.848C42.2675 77.178 42.1205 77.634 42.0065 78.216C41.8985 78.792 41.8445 79.533 41.8445 80.439C41.8445 81.351 41.8985 82.095 42.0065 82.671C42.1205 83.247 42.2675 83.703 42.4475 84.039C42.6335 84.369 42.8435 84.597 43.0775 84.723C43.3175 84.843 43.5605 84.903 43.8065 84.903C44.0525 84.903 44.2955 84.843 44.5355 84.723C44.7755 84.597 44.9885 84.369 45.1745 84.039C45.3665 83.703 45.5195 83.247 45.6335 82.671C45.7475 82.095 45.8045 81.351 45.8045 80.439ZM55.9399 77.064C55.9399 77.544 55.8529 77.982 55.6789 78.378C55.5049 78.774 55.2739 79.116 54.9859 79.404C54.6979 79.686 54.3619 79.905 53.9779 80.061C53.5999 80.217 53.2039 80.295 52.7899 80.295C52.3339 80.295 51.9139 80.217 51.5299 80.061C51.1519 79.905 50.8219 79.686 50.5399 79.404C50.2639 79.116 50.0479 78.774 49.8919 78.378C49.7359 77.982 49.6579 77.544 49.6579 77.064C49.6579 76.566 49.7359 76.116 49.8919 75.714C50.0479 75.306 50.2639 74.958 50.5399 74.67C50.8219 74.382 51.1519 74.16 51.5299 74.004C51.9139 73.842 52.3339 73.761 52.7899 73.761C53.2459 73.761 53.6659 73.842 54.0499 74.004C54.4399 74.16 54.7729 74.382 55.0489 74.67C55.3309 74.958 55.5499 75.306 55.7059 75.714C55.8619 76.116 55.9399 76.566 55.9399 77.064ZM53.7979 77.064C53.7979 76.758 53.7709 76.506 53.7169 76.308C53.6689 76.104 53.5999 75.942 53.5099 75.822C53.4199 75.702 53.3119 75.618 53.1859 75.57C53.0659 75.522 52.9339 75.498 52.7899 75.498C52.6459 75.498 52.5139 75.522 52.3939 75.57C52.2739 75.618 52.1719 75.702 52.0879 75.822C52.0039 75.942 51.9379 76.104 51.8899 76.308C51.8419 76.506 51.8179 76.758 51.8179 77.064C51.8179 77.352 51.8419 77.592 51.8899 77.784C51.9379 77.976 52.0039 78.129 52.0879 78.243C52.1719 78.357 52.2739 78.438 52.3939 78.486C52.5139 78.534 52.6459 78.558 52.7899 78.558C52.9339 78.558 53.0659 78.534 53.1859 78.486C53.3119 78.438 53.4199 78.357 53.5099 78.243C53.5999 78.129 53.6689 77.976 53.7169 77.784C53.7709 77.592 53.7979 77.352 53.7979 77.064ZM60.0619 74.301C60.1519 74.199 60.2629 74.106 60.3949 74.022C60.5269 73.932 60.7099 73.887 60.9439 73.887H62.9779L53.0959 86.604C53.0059 86.718 52.8919 86.814 52.7539 86.892C52.6219 86.964 52.4599 87 52.2679 87H50.1799L60.0619 74.301ZM63.4819 83.922C63.4819 84.402 63.3949 84.843 63.2209 85.245C63.0469 85.641 62.8159 85.983 62.5279 86.271C62.2399 86.553 61.9039 86.772 61.5199 86.928C61.1419 87.084 60.7459 87.162 60.3319 87.162C59.8759 87.162 59.4559 87.084 59.0719 86.928C58.6939 86.772 58.3639 86.553 58.0819 86.271C57.8059 85.983 57.5899 85.641 57.4339 85.245C57.2779 84.843 57.1999 84.402 57.1999 83.922C57.1999 83.424 57.2779 82.974 57.4339 82.572C57.5899 82.164 57.8059 81.816 58.0819 81.528C58.3639 81.24 58.6939 81.018 59.0719 80.862C59.4559 80.7 59.8759 80.619 60.3319 80.619C60.7879 80.619 61.2079 80.7 61.5919 80.862C61.9819 81.018 62.3149 81.24 62.5909 81.528C62.8729 81.816 63.0919 82.164 63.2479 82.572C63.4039 82.974 63.4819 83.424 63.4819 83.922ZM61.3399 83.922C61.3399 83.622 61.3129 83.373 61.2589 83.175C61.2109 82.971 61.1419 82.809 61.0519 82.689C60.9619 82.569 60.8539 82.485 60.7279 82.437C60.6079 82.389 60.4759 82.365 60.3319 82.365C60.1879 82.365 60.0559 82.389 59.9359 82.437C59.8159 82.485 59.7139 82.569 59.6299 82.689C59.5459 82.809 59.4799 82.971 59.4319 83.175C59.3839 83.373 59.3599 83.622 59.3599 83.922C59.3599 84.21 59.3839 84.45 59.4319 84.642C59.4799 84.834 59.5459 84.987 59.6299 85.101C59.7139 85.215 59.8159 85.296 59.9359 85.344C60.0559 85.392 60.1879 85.416 60.3319 85.416C60.4759 85.416 60.6079 85.392 60.7279 85.344C60.8539 85.296 60.9619 85.215 61.0519 85.101C61.1419 84.987 61.2109 84.834 61.2589 84.642C61.3129 84.45 61.3399 84.21 61.3399 83.922ZM73.5058 77.523C74.2138 77.523 74.8588 77.634 75.4408 77.856C76.0228 78.078 76.5208 78.396 76.9348 78.81C77.3548 79.224 77.6788 79.728 77.9068 80.322C78.1408 80.91 78.2578 81.573 78.2578 82.311C78.2578 83.055 78.1408 83.727 77.9068 84.327C77.6788 84.921 77.3548 85.428 76.9348 85.848C76.5208 86.262 76.0228 86.583 75.4408 86.811C74.8588 87.033 74.2138 87.144 73.5058 87.144C72.7918 87.144 72.1408 87.033 71.5528 86.811C70.9708 86.583 70.4668 86.262 70.0408 85.848C69.6208 85.428 69.2938 84.921 69.0598 84.327C68.8318 83.727 68.7178 83.055 68.7178 82.311C68.7178 81.573 68.8318 80.91 69.0598 80.322C69.2938 79.728 69.6208 79.224 70.0408 78.81C70.4668 78.396 70.9708 78.078 71.5528 77.856C72.1408 77.634 72.7918 77.523 73.5058 77.523ZM73.5058 85.074C74.1478 85.074 74.6188 84.849 74.9188 84.399C75.2248 83.943 75.3778 83.253 75.3778 82.329C75.3778 81.405 75.2248 80.718 74.9188 80.268C74.6188 79.818 74.1478 79.593 73.5058 79.593C72.8458 79.593 72.3628 79.818 72.0568 80.268C71.7508 80.718 71.5978 81.405 71.5978 82.329C71.5978 83.253 71.7508 83.943 72.0568 84.399C72.3628 84.849 72.8458 85.074 73.5058 85.074ZM80.0921 87V79.584L79.4801 79.458C79.2701 79.41 79.0991 79.335 78.9671 79.233C78.8411 79.131 78.7781 78.981 78.7781 78.783V77.685H80.0921V77.334C80.0921 76.8 80.1761 76.317 80.3441 75.885C80.5181 75.447 80.7641 75.075 81.0821 74.769C81.4061 74.463 81.7991 74.229 82.2611 74.067C82.7231 73.899 83.2481 73.815 83.8361 73.815C84.0641 73.815 84.2741 73.83 84.4661 73.86C84.6581 73.884 84.8591 73.923 85.0691 73.977L85.0151 75.336C85.0031 75.528 84.9221 75.663 84.7721 75.741C84.6281 75.813 84.4781 75.849 84.3221 75.849C84.0761 75.849 83.8571 75.873 83.6651 75.921C83.4731 75.969 83.3111 76.053 83.1791 76.173C83.0531 76.293 82.9571 76.455 82.8911 76.659C82.8251 76.857 82.7921 77.109 82.7921 77.415V77.685H86.0681V76.983C86.0681 76.449 86.1521 75.966 86.3201 75.534C86.4941 75.102 86.7401 74.733 87.0581 74.427C87.3821 74.121 87.7751 73.884 88.2371 73.716C88.6991 73.548 89.2241 73.464 89.8121 73.464C90.0401 73.464 90.2501 73.479 90.4421 73.509C90.6341 73.533 90.8351 73.575 91.0451 73.635L90.9911 74.994C90.9851 75.09 90.9611 75.171 90.9191 75.237C90.8771 75.297 90.8201 75.348 90.7481 75.39C90.6821 75.426 90.6101 75.453 90.5321 75.471C90.4541 75.489 90.3761 75.498 90.2981 75.498C90.0521 75.498 89.8331 75.522 89.6411 75.57C89.4491 75.618 89.2871 75.705 89.1551 75.831C89.0291 75.951 88.9331 76.113 88.8671 76.317C88.8011 76.515 88.7681 76.767 88.7681 77.073V77.685H90.9551V79.593H88.8581V87H86.0681V79.593H82.8821V87H80.0921ZM33.8734 98.551C33.7834 98.695 33.6874 98.803 33.5854 98.875C33.4894 98.947 33.3634 98.983 33.2074 98.983C33.0694 98.983 32.9194 98.941 32.7574 98.857C32.6014 98.767 32.4214 98.668 32.2174 98.56C32.0194 98.452 31.7914 98.356 31.5334 98.272C31.2754 98.182 30.9814 98.137 30.6514 98.137C30.0814 98.137 29.6554 98.26 29.3734 98.506C29.0974 98.746 28.9594 99.073 28.9594 99.487C28.9594 99.751 29.0434 99.97 29.2114 100.144C29.3794 100.318 29.5984 100.468 29.8684 100.594C30.1444 100.72 30.4564 100.837 30.8044 100.945C31.1584 101.047 31.5184 101.164 31.8844 101.296C32.2504 101.422 32.6074 101.572 32.9554 101.746C33.3094 101.92 33.6214 102.142 33.8914 102.412C34.1674 102.682 34.3894 103.012 34.5574 103.402C34.7254 103.786 34.8094 104.251 34.8094 104.797C34.8094 105.403 34.7044 105.97 34.4944 106.498C34.2844 107.026 33.9784 107.488 33.5764 107.884C33.1804 108.274 32.6884 108.583 32.1004 108.811C31.5184 109.033 30.8554 109.144 30.1114 109.144C29.7034 109.144 29.2864 109.102 28.8604 109.018C28.4404 108.934 28.0324 108.817 27.6364 108.667C27.2404 108.511 26.8684 108.328 26.5204 108.118C26.1724 107.908 25.8694 107.674 25.6114 107.416L26.5114 105.994C26.5834 105.892 26.6764 105.808 26.7904 105.742C26.9104 105.67 27.0394 105.634 27.1774 105.634C27.3574 105.634 27.5374 105.691 27.7174 105.805C27.9034 105.919 28.1104 106.045 28.3384 106.183C28.5724 106.321 28.8394 106.447 29.1394 106.561C29.4394 106.675 29.7934 106.732 30.2014 106.732C30.7534 106.732 31.1824 106.612 31.4884 106.372C31.7944 106.126 31.9474 105.739 31.9474 105.211C31.9474 104.905 31.8634 104.656 31.6954 104.464C31.5274 104.272 31.3054 104.113 31.0294 103.987C30.7594 103.861 30.4504 103.75 30.1024 103.654C29.7544 103.558 29.3974 103.453 29.0314 103.339C28.6654 103.219 28.3084 103.075 27.9604 102.907C27.6124 102.733 27.3004 102.508 27.0244 102.232C26.7544 101.95 26.5354 101.602 26.3674 101.188C26.1994 100.768 26.1154 100.252 26.1154 99.64C26.1154 99.148 26.2144 98.668 26.4124 98.2C26.6104 97.732 26.9014 97.315 27.2854 96.949C27.6694 96.583 28.1404 96.292 28.6984 96.076C29.2564 95.854 29.8954 95.743 30.6154 95.743C31.0174 95.743 31.4074 95.776 31.7854 95.842C32.1694 95.902 32.5324 95.995 32.8744 96.121C33.2164 96.241 33.5344 96.388 33.8284 96.562C34.1284 96.73 34.3954 96.922 34.6294 97.138L33.8734 98.551ZM38.9557 100.486C39.2917 100.198 39.6547 99.967 40.0447 99.793C40.4407 99.613 40.9117 99.523 41.4577 99.523C41.9677 99.523 42.4177 99.613 42.8077 99.793C43.2037 99.967 43.5367 100.213 43.8067 100.531C44.0767 100.843 44.2807 101.218 44.4187 101.656C44.5567 102.088 44.6257 102.559 44.6257 103.069V109H41.8357V103.069C41.8357 102.613 41.7307 102.259 41.5207 102.007C41.3107 101.749 41.0017 101.62 40.5937 101.62C40.2877 101.62 39.9997 101.686 39.7297 101.818C39.4657 101.944 39.2077 102.118 38.9557 102.34V109H36.1657V95.527H38.9557V100.486ZM51.2463 105.202C50.6883 105.226 50.2293 105.274 49.8693 105.346C49.5093 105.418 49.2243 105.508 49.0143 105.616C48.8043 105.724 48.6573 105.847 48.5733 105.985C48.4953 106.123 48.4563 106.273 48.4563 106.435C48.4563 106.753 48.5433 106.978 48.7173 107.11C48.8913 107.236 49.1463 107.299 49.4823 107.299C49.8423 107.299 50.1573 107.236 50.4273 107.11C50.6973 106.984 50.9703 106.78 51.2463 106.498V105.202ZM46.2243 100.963C46.7883 100.465 47.4123 100.096 48.0963 99.856C48.7863 99.61 49.5243 99.487 50.3103 99.487C50.8743 99.487 51.3813 99.58 51.8313 99.766C52.2873 99.946 52.6713 100.201 52.9833 100.531C53.3013 100.855 53.5443 101.242 53.7123 101.692C53.8803 102.142 53.9643 102.634 53.9643 103.168V109H52.6863C52.4223 109 52.2213 108.964 52.0833 108.892C51.9513 108.82 51.8403 108.67 51.7503 108.442L51.5523 107.929C51.3183 108.127 51.0933 108.301 50.8773 108.451C50.6613 108.601 50.4363 108.73 50.2023 108.838C49.9743 108.94 49.7283 109.015 49.4643 109.063C49.2063 109.117 48.9183 109.144 48.6003 109.144C48.1743 109.144 47.7873 109.09 47.4393 108.982C47.0913 108.868 46.7943 108.703 46.5483 108.487C46.3083 108.271 46.1223 108.004 45.9903 107.686C45.8583 107.362 45.7923 106.99 45.7923 106.57C45.7923 106.234 45.8763 105.895 46.0443 105.553C46.2123 105.205 46.5033 104.89 46.9173 104.608C47.3313 104.32 47.8893 104.08 48.5913 103.888C49.2933 103.696 50.1783 103.588 51.2463 103.564V103.168C51.2463 102.622 51.1323 102.229 50.9043 101.989C50.6823 101.743 50.3643 101.62 49.9503 101.62C49.6203 101.62 49.3503 101.656 49.1403 101.728C48.9303 101.8 48.7413 101.881 48.5733 101.971C48.4113 102.061 48.2523 102.142 48.0963 102.214C47.9403 102.286 47.7543 102.322 47.5383 102.322C47.3463 102.322 47.1843 102.274 47.0523 102.178C46.9203 102.082 46.8123 101.968 46.7283 101.836L46.2243 100.963ZM58.5377 106.462C58.7477 106.69 58.9757 106.852 59.2217 106.948C59.4677 107.044 59.7257 107.092 59.9957 107.092C60.2537 107.092 60.4907 107.041 60.7067 106.939C60.9227 106.837 61.1087 106.675 61.2647 106.453C61.4267 106.225 61.5527 105.931 61.6427 105.571C61.7327 105.211 61.7777 104.773 61.7777 104.257C61.7777 103.765 61.7417 103.351 61.6697 103.015C61.5977 102.679 61.4957 102.409 61.3637 102.205C61.2377 101.995 61.0847 101.845 60.9047 101.755C60.7247 101.665 60.5237 101.62 60.3017 101.62C59.8937 101.62 59.5577 101.695 59.2937 101.845C59.0297 101.995 58.7777 102.214 58.5377 102.502V106.462ZM58.3667 100.819C58.7327 100.429 59.1467 100.111 59.6087 99.865C60.0767 99.613 60.6317 99.487 61.2737 99.487C61.7597 99.487 62.2097 99.595 62.6237 99.811C63.0377 100.027 63.3947 100.339 63.6947 100.747C63.9947 101.155 64.2287 101.656 64.3967 102.25C64.5707 102.838 64.6577 103.507 64.6577 104.257C64.6577 104.959 64.5587 105.607 64.3607 106.201C64.1687 106.795 63.8957 107.311 63.5417 107.749C63.1937 108.187 62.7737 108.529 62.2817 108.775C61.7957 109.021 61.2557 109.144 60.6617 109.144C60.1757 109.144 59.7677 109.075 59.4377 108.937C59.1077 108.799 58.8077 108.613 58.5377 108.379V111.961H55.7477V99.667H57.4757C57.8237 99.667 58.0517 99.823 58.1597 100.135L58.3667 100.819ZM71.9063 103.213C71.9063 102.991 71.8763 102.775 71.8163 102.565C71.7623 102.355 71.6693 102.169 71.5373 102.007C71.4113 101.839 71.2433 101.704 71.0333 101.602C70.8233 101.5 70.5683 101.449 70.2683 101.449C69.7403 101.449 69.3263 101.602 69.0263 101.908C68.7263 102.208 68.5283 102.643 68.4323 103.213H71.9063ZM68.3963 104.833C68.4863 105.613 68.7233 106.18 69.1073 106.534C69.4913 106.882 69.9863 107.056 70.5923 107.056C70.9163 107.056 71.1953 107.017 71.4293 106.939C71.6633 106.861 71.8703 106.774 72.0503 106.678C72.2363 106.582 72.4043 106.495 72.5543 106.417C72.7103 106.339 72.8723 106.3 73.0403 106.3C73.2623 106.3 73.4303 106.381 73.5443 106.543L74.3543 107.542C74.0663 107.872 73.7543 108.142 73.4183 108.352C73.0883 108.556 72.7463 108.718 72.3923 108.838C72.0443 108.952 71.6933 109.03 71.3393 109.072C70.9913 109.12 70.6583 109.144 70.3403 109.144C69.6863 109.144 69.0713 109.039 68.4953 108.829C67.9253 108.613 67.4243 108.295 66.9923 107.875C66.5663 107.455 66.2273 106.933 65.9753 106.309C65.7293 105.685 65.6063 104.959 65.6063 104.131C65.6063 103.507 65.7113 102.916 65.9213 102.358C66.1373 101.8 66.4433 101.311 66.8393 100.891C67.2413 100.471 67.7243 100.138 68.2883 99.892C68.8583 99.646 69.5003 99.523 70.2143 99.523C70.8323 99.523 71.3963 99.619 71.9063 99.811C72.4223 100.003 72.8633 100.282 73.2293 100.648C73.6013 101.014 73.8893 101.464 74.0933 101.998C74.3033 102.526 74.4082 103.126 74.4082 103.798C74.4082 104.008 74.3993 104.179 74.3813 104.311C74.3633 104.443 74.3303 104.548 74.2823 104.626C74.2343 104.704 74.1683 104.758 74.0843 104.788C74.0063 104.818 73.9043 104.833 73.7783 104.833H68.3963ZM75.4264 107.587C75.4264 107.371 75.4654 107.17 75.5434 106.984C75.6274 106.798 75.7384 106.636 75.8764 106.498C76.0204 106.36 76.1884 106.252 76.3804 106.174C76.5724 106.09 76.7824 106.048 77.0104 106.048C77.2324 106.048 77.4394 106.09 77.6314 106.174C77.8234 106.252 77.9914 106.36 78.1354 106.498C78.2794 106.636 78.3904 106.798 78.4684 106.984C78.5524 107.17 78.5944 107.371 78.5944 107.587C78.5944 107.803 78.5524 108.007 78.4684 108.199C78.3904 108.385 78.2794 108.547 78.1354 108.685C77.9914 108.823 77.8234 108.931 77.6314 109.009C77.4394 109.087 77.2324 109.126 77.0104 109.126C76.7824 109.126 76.5724 109.087 76.3804 109.009C76.1884 108.931 76.0204 108.823 75.8764 108.685C75.7384 108.547 75.6274 108.385 75.5434 108.199C75.4654 108.007 75.4264 107.803 75.4264 107.587ZM86.042 101.71C85.97 101.824 85.892 101.905 85.808 101.953C85.73 102.001 85.628 102.025 85.502 102.025C85.37 102.025 85.238 101.998 85.106 101.944C84.974 101.884 84.83 101.821 84.674 101.755C84.524 101.689 84.353 101.629 84.161 101.575C83.969 101.515 83.75 101.485 83.504 101.485C83.15 101.485 82.877 101.554 82.685 101.692C82.499 101.824 82.406 102.01 82.406 102.25C82.406 102.424 82.466 102.568 82.586 102.682C82.712 102.796 82.877 102.898 83.081 102.988C83.285 103.072 83.516 103.153 83.774 103.231C84.032 103.309 84.296 103.396 84.566 103.492C84.836 103.588 85.1 103.702 85.358 103.834C85.616 103.96 85.847 104.119 86.051 104.311C86.255 104.497 86.417 104.725 86.537 104.995C86.663 105.265 86.726 105.589 86.726 105.967C86.726 106.429 86.642 106.855 86.474 107.245C86.306 107.635 86.054 107.971 85.718 108.253C85.388 108.535 84.977 108.754 84.485 108.91C83.999 109.066 83.438 109.144 82.802 109.144C82.484 109.144 82.166 109.114 81.848 109.054C81.53 108.994 81.221 108.913 80.921 108.811C80.627 108.709 80.354 108.589 80.102 108.451C79.85 108.307 79.634 108.154 79.454 107.992L80.102 106.966C80.174 106.846 80.264 106.753 80.372 106.687C80.486 106.615 80.63 106.579 80.804 106.579C80.966 106.579 81.11 106.615 81.236 106.687C81.368 106.759 81.509 106.837 81.659 106.921C81.809 107.005 81.983 107.083 82.181 107.155C82.385 107.227 82.64 107.263 82.946 107.263C83.162 107.263 83.345 107.242 83.495 107.2C83.645 107.152 83.765 107.089 83.855 107.011C83.945 106.933 84.011 106.846 84.053 106.75C84.095 106.654 84.116 106.555 84.116 106.453C84.116 106.267 84.053 106.114 83.927 105.994C83.801 105.874 83.636 105.772 83.432 105.688C83.228 105.598 82.994 105.517 82.73 105.445C82.472 105.367 82.208 105.28 81.938 105.184C81.668 105.088 81.401 104.974 81.137 104.842C80.879 104.704 80.648 104.533 80.444 104.329C80.24 104.119 80.075 103.864 79.949 103.564C79.823 103.264 79.76 102.901 79.76 102.475C79.76 102.079 79.835 101.704 79.985 101.35C80.141 100.99 80.372 100.675 80.678 100.405C80.984 100.135 81.368 99.922 81.83 99.766C82.292 99.604 82.832 99.523 83.45 99.523C83.786 99.523 84.11 99.553 84.422 99.613C84.74 99.673 85.037 99.757 85.313 99.865C85.589 99.973 85.841 100.102 86.069 100.252C86.297 100.396 86.498 100.555 86.672 100.729L86.042 101.71ZM92.4286 99.523C93.1366 99.523 93.7816 99.634 94.3636 99.856C94.9456 100.078 95.4436 100.396 95.8576 100.81C96.2776 101.224 96.6016 101.728 96.8296 102.322C97.0636 102.91 97.1806 103.573 97.1806 104.311C97.1806 105.055 97.0636 105.727 96.8296 106.327C96.6016 106.921 96.2776 107.428 95.8576 107.848C95.4436 108.262 94.9456 108.583 94.3636 108.811C93.7816 109.033 93.1366 109.144 92.4286 109.144C91.7146 109.144 91.0636 109.033 90.4756 108.811C89.8936 108.583 89.3896 108.262 88.9636 107.848C88.5436 107.428 88.2166 106.921 87.9826 106.327C87.7546 105.727 87.6406 105.055 87.6406 104.311C87.6406 103.573 87.7546 102.91 87.9826 102.322C88.2166 101.728 88.5436 101.224 88.9636 100.81C89.3896 100.396 89.8936 100.078 90.4756 99.856C91.0636 99.634 91.7146 99.523 92.4286 99.523ZM92.4286 107.074C93.0706 107.074 93.5416 106.849 93.8416 106.399C94.1476 105.943 94.3006 105.253 94.3006 104.329C94.3006 103.405 94.1476 102.718 93.8416 102.268C93.5416 101.818 93.0706 101.593 92.4286 101.593C91.7686 101.593 91.2856 101.818 90.9796 102.268C90.6736 102.718 90.5206 103.405 90.5206 104.329C90.5206 105.253 90.6736 105.943 90.9796 106.399C91.2856 106.849 91.7686 107.074 92.4286 107.074Z" fill="white"/>
<path fill-rule="evenodd" clip-rule="evenodd" d="M61 52C75.3594 52 87 40.3594 87 26C87 11.6406 75.3594 0 61 0C46.6406 0 35 11.6406 35 26C35 40.3594 46.6406 52 61 52Z" fill="black"/>
<path d="M66.7363 32.6148H73.4288L64.4085 17.0312L61.1108 22.4807L63.646 27.0415L66.7363 32.6148Z" fill="#3C10EE"/>
<path d="M49.1429 39.9404L46.5598 35.5113C46.3145 35.0908 46.3133 34.5734 46.5567 34.1518L53.3542 22.3779L59.1406 12.0787C59.668 11.1401 61.0347 11.1405 61.5615 12.0794L64.0424 16.5014C64.2839 16.9319 64.2725 17.4575 64.0125 17.8773L61.9127 21.2677L51.5557 39.9155C51.0366 40.8503 49.6818 40.8643 49.1429 39.9404Z" fill="#B6C4FF"/>
<path d="M68.2123 32.6147H73.4014L75.4442 36.179C75.9663 37.0903 75.2999 38.2193 74.2396 38.2193H59.5793C58.5261 38.2193 57.8589 37.1039 58.3669 36.1929L59.9676 33.3223C60.2111 32.8857 60.6755 32.6147 61.1799 32.6147H68.2123Z" fill="#2CA4FE"/>
<defs>
<filter id="filter0_d_429_5" x="0.5" y="26.5" width="121" height="121" filterUnits="userSpaceOnUse" color-interpolation-filters="sRGB">
<feFlood flood-opacity="0" result="BackgroundImageFix"/>
<feColorMatrix in="SourceAlpha" type="matrix" values="0 0 0 0 0 0 0 0 0 0 0 0 0 0 0 0 0 0 127 0" result="hardAlpha"/>
<feMorphology radius="0.5" operator="dilate" in="SourceAlpha" result="effect1_dropShadow_429_5"/>
<feOffset/>
<feComposite in2="hardAlpha" operator="out"/>
<feColorMatrix type="matrix" values="0 0 0 0 1 0 0 0 0 1 0 0 0 0 1 0 0 0 0.21 0"/>
<feBlend mode="normal" in2="BackgroundImageFix" result="effect1_dropShadow_429_5"/>
<feBlend mode="normal" in="SourceGraphic" in2="effect1_dropShadow_429_5" result="shape"/>
</filter>
<linearGradient id="paint0_linear_429_5" x1="61" y1="27" x2="61" y2="147" gradientUnits="userSpaceOnUse">
<stop stop-color="#1820FF" stop-opacity="0.19"/>
<stop offset="1" stop-color="#18204F" stop-opacity="0.74"/>
</linearGradient>
</defs>
</svg>
