<svg width="455" height="340" viewBox="0 0 455 340" fill="none" xmlns="http://www.w3.org/2000/svg">
<g filter="url(#filter0_bdd_49_230)">
<rect x="60" y="30" width="335" height="220" rx="30" fill="url(#paint0_linear_49_230)" shape-rendering="crispEdges"/>
</g>
<path fill-rule="evenodd" clip-rule="evenodd" d="M348 97C360.15 97 370 87.1503 370 75C370 62.8497 360.15 53 348 53C335.85 53 326 62.8497 326 75C326 87.1503 335.85 97 348 97Z" fill="#18204D"/>
<path d="M360.375 75.023C360.375 73.3834 358.322 71.8297 355.174 70.8661C355.9 67.6575 355.577 65.1048 354.155 64.2876C353.827 64.0959 353.443 64.005 353.025 64.005V65.13C353.257 65.13 353.443 65.1754 353.6 65.2612C354.286 65.6547 354.583 67.153 354.351 69.0802C354.296 69.5543 354.205 70.0539 354.094 70.5633C353.105 70.3212 352.026 70.1346 350.891 70.0134C350.21 69.0802 349.503 68.2327 348.792 67.491C350.437 65.9624 351.98 65.125 353.03 65.125V64C351.642 64 349.826 64.9888 347.99 66.704C346.154 64.9989 344.337 64.0202 342.95 64.0202V65.1452C343.994 65.1452 345.543 65.9776 347.188 67.4961C346.481 68.2376 345.775 69.0802 345.104 70.0134C343.964 70.1346 342.885 70.3212 341.896 70.5684C341.78 70.0639 341.694 69.5745 341.633 69.1054C341.396 67.1783 341.689 65.6799 342.37 65.2814C342.521 65.1906 342.718 65.1502 342.95 65.1502V64.0252C342.526 64.0252 342.143 64.116 341.81 64.3077C340.392 65.125 340.074 67.6726 340.806 70.871C337.668 71.8397 335.625 73.3885 335.625 75.023C335.625 76.6625 337.678 78.2164 340.826 79.18C340.1 82.3885 340.423 84.9412 341.845 85.7585C342.173 85.9501 342.557 86.041 342.98 86.041C344.368 86.041 346.184 85.0521 348.02 83.3369C349.857 85.0421 351.673 86.0208 353.06 86.0208C353.484 86.0208 353.867 85.9299 354.2 85.7382C355.618 84.9209 355.936 82.3733 355.204 79.1749C358.332 78.2113 360.375 76.6576 360.375 75.023ZM353.807 71.6581C353.62 72.3089 353.388 72.9799 353.126 73.6509C352.919 73.2472 352.702 72.8436 352.465 72.44C352.233 72.0365 351.985 71.643 351.738 71.2596C352.455 71.3655 353.146 71.4967 353.807 71.6581ZM351.496 77.0309C351.103 77.7119 350.699 78.3576 350.28 78.958C349.529 79.0236 348.767 79.0589 348 79.0589C347.238 79.0589 346.476 79.0236 345.73 78.9631C345.311 78.3627 344.902 77.722 344.509 77.046C344.126 76.3851 343.778 75.7142 343.46 75.0381C343.772 74.3622 344.126 73.6861 344.504 73.0252C344.897 72.3442 345.301 71.6985 345.72 71.098C346.471 71.0326 347.233 70.9972 348 70.9972C348.762 70.9972 349.523 71.0326 350.27 71.0931C350.689 71.6934 351.098 72.334 351.491 73.0101C351.874 73.6709 352.222 74.3419 352.54 75.0179C352.222 75.694 351.874 76.3699 351.496 77.0309ZM353.126 76.375C353.398 77.051 353.63 77.7271 353.822 78.3829C353.161 78.5444 352.465 78.6805 351.743 78.7865C351.991 78.3981 352.238 77.9994 352.47 77.5908C352.702 77.1872 352.919 76.7786 353.126 76.375ZM348.01 81.7579C347.541 81.2736 347.072 80.7338 346.608 80.1435C347.062 80.1637 347.526 80.1788 347.995 80.1788C348.469 80.1788 348.938 80.1688 349.397 80.1435C348.943 80.7338 348.474 81.2736 348.01 81.7579ZM344.257 78.7865C343.54 78.6805 342.849 78.5493 342.188 78.3879C342.375 77.7371 342.607 77.0661 342.869 76.3952C343.076 76.7988 343.293 77.2024 343.53 77.6059C343.767 78.0095 344.009 78.403 344.257 78.7865ZM347.985 68.2881C348.454 68.7725 348.923 69.3122 349.387 69.9025C348.933 69.8823 348.469 69.8671 348 69.8671C347.526 69.8671 347.057 69.8773 346.597 69.9025C347.052 69.3122 347.521 68.7725 347.985 68.2881ZM344.252 71.2596C344.005 71.648 343.757 72.0465 343.525 72.4552C343.293 72.8587 343.076 73.2623 342.869 73.666C342.597 72.9899 342.365 72.314 342.173 71.6581C342.834 71.5017 343.53 71.3655 344.252 71.2596ZM339.686 77.5757C337.9 76.8139 336.745 75.815 336.745 75.023C336.745 74.231 337.9 73.2271 339.686 72.4703C340.12 72.2837 340.594 72.1172 341.083 71.9607C341.371 72.9496 341.749 73.9787 342.219 75.0332C341.754 76.0824 341.381 77.1065 341.099 78.0903C340.599 77.9339 340.125 77.7624 339.686 77.5757ZM342.4 84.7848C341.714 84.3913 341.417 82.8929 341.649 80.9659C341.704 80.4916 341.795 79.9922 341.906 79.4827C342.895 79.7248 343.974 79.9115 345.109 80.0325C345.79 80.9659 346.497 81.8134 347.208 82.555C345.563 84.0836 344.02 84.9209 342.97 84.9209C342.743 84.916 342.552 84.8706 342.4 84.7848ZM354.367 80.9406C354.604 82.8678 354.311 84.3661 353.63 84.7646C353.479 84.8554 353.282 84.8958 353.05 84.8958C352.006 84.8958 350.457 84.0633 348.812 82.5449C349.519 81.8033 350.225 80.9608 350.896 80.0274C352.036 79.9064 353.115 79.7197 354.104 79.4726C354.22 79.9821 354.311 80.4714 354.367 80.9406ZM356.309 77.5757C355.875 77.7624 355.401 77.9288 354.911 78.0852C354.624 77.0965 354.246 76.0673 353.776 75.0129C354.24 73.9635 354.614 72.9394 354.896 71.9558C355.396 72.1121 355.87 72.2837 356.314 72.4703C358.1 73.232 359.255 74.231 359.255 75.023C359.25 75.815 358.095 76.819 356.309 77.5757Z" fill="#61DAFB"/>
<path d="M347.995 77.3286C349.268 77.3286 350.3 76.2964 350.3 75.0231C350.3 73.7498 349.268 72.7175 347.995 72.7175C346.721 72.7175 345.689 73.7498 345.689 75.0231C345.689 76.2964 346.721 77.3286 347.995 77.3286Z" fill="#61DAFB"/>
<path d="M83.3155 69.1555C83.7575 69.1555 84.1513 69.0818 84.497 68.9345C84.8483 68.7872 85.143 68.5803 85.381 68.314C85.619 68.0477 85.8003 67.7247 85.925 67.345C86.0553 66.9653 86.1205 66.5403 86.1205 66.07V58.709H88.407V66.07C88.407 66.801 88.288 67.4782 88.05 68.1015C87.8177 68.7192 87.4805 69.2547 87.0385 69.708C86.6022 70.1557 86.0695 70.507 85.4405 70.762C84.8115 71.0113 84.1032 71.136 83.3155 71.136C82.5222 71.136 81.811 71.0113 81.182 70.762C80.553 70.507 80.0175 70.1557 79.5755 69.708C79.1392 69.2547 78.802 68.7192 78.564 68.1015C78.3317 67.4782 78.2155 66.801 78.2155 66.07V58.709H80.502V66.0615C80.502 66.5318 80.5643 66.9568 80.689 67.3365C80.8193 67.7162 81.0035 68.042 81.2415 68.314C81.4852 68.5803 81.7798 68.7872 82.1255 68.9345C82.4768 69.0818 82.8735 69.1555 83.3155 69.1555ZM93.2807 71H90.9857V58.709H93.2807V71ZM111.08 64.8545C111.08 65.7555 110.93 66.5828 110.63 67.3365C110.33 68.0902 109.907 68.739 109.363 69.283C108.819 69.827 108.165 70.2492 107.4 70.5495C106.635 70.8498 105.785 71 104.85 71H100.166V58.709H104.85C105.785 58.709 106.635 58.862 107.4 59.168C108.165 59.4683 108.819 59.8905 109.363 60.4345C109.907 60.9728 110.33 61.6188 110.63 62.3725C110.93 63.1262 111.08 63.9535 111.08 64.8545ZM108.734 64.8545C108.734 64.1802 108.644 63.5767 108.462 63.044C108.287 62.5057 108.029 62.0523 107.689 61.684C107.355 61.31 106.947 61.0238 106.465 60.8255C105.989 60.6272 105.451 60.528 104.85 60.528H102.461V69.181H104.85C105.451 69.181 105.989 69.0818 106.465 68.8835C106.947 68.6852 107.355 68.4018 107.689 68.0335C108.029 67.6595 108.287 67.2062 108.462 66.6735C108.644 66.1352 108.734 65.5288 108.734 64.8545ZM118.27 65.6365C118.27 65.3645 118.23 65.1095 118.151 64.8715C118.077 64.6278 117.964 64.4153 117.811 64.234C117.658 64.0527 117.462 63.911 117.224 63.809C116.992 63.7013 116.72 63.6475 116.408 63.6475C115.802 63.6475 115.323 63.8203 114.972 64.166C114.626 64.5117 114.405 65.0018 114.309 65.6365H118.27ZM114.266 66.903C114.3 67.3507 114.38 67.7388 114.504 68.0675C114.629 68.3905 114.793 68.6597 114.997 68.875C115.201 69.0847 115.442 69.2433 115.72 69.351C116.003 69.453 116.315 69.504 116.655 69.504C116.995 69.504 117.287 69.4643 117.53 69.385C117.78 69.3057 117.995 69.2178 118.176 69.1215C118.363 69.0252 118.525 68.9373 118.661 68.858C118.802 68.7787 118.938 68.739 119.069 68.739C119.244 68.739 119.375 68.8042 119.46 68.9345L120.063 69.6995C119.831 69.9715 119.57 70.201 119.281 70.388C118.992 70.5693 118.689 70.7167 118.372 70.83C118.06 70.9377 117.74 71.0142 117.411 71.0595C117.088 71.1048 116.774 71.1275 116.468 71.1275C115.861 71.1275 115.298 71.0283 114.776 70.83C114.255 70.626 113.802 70.3285 113.416 69.9375C113.031 69.5408 112.728 69.0535 112.507 68.4755C112.286 67.8918 112.175 67.2175 112.175 66.4525C112.175 65.8575 112.272 65.2993 112.464 64.778C112.657 64.251 112.932 63.7948 113.289 63.4095C113.651 63.0185 114.091 62.7097 114.606 62.483C115.128 62.2563 115.714 62.143 116.366 62.143C116.915 62.143 117.423 62.2308 117.887 62.4065C118.352 62.5822 118.751 62.84 119.086 63.18C119.42 63.5143 119.681 63.928 119.868 64.421C120.06 64.9083 120.157 65.4665 120.157 66.0955C120.157 66.4128 120.123 66.6282 120.055 66.7415C119.987 66.8492 119.856 66.903 119.664 66.903H114.266ZM127.053 63.979C126.997 64.0697 126.937 64.1348 126.875 64.1745C126.812 64.2085 126.733 64.2255 126.637 64.2255C126.535 64.2255 126.424 64.1972 126.305 64.1405C126.192 64.0838 126.059 64.0215 125.906 63.9535C125.753 63.8798 125.577 63.8147 125.379 63.758C125.186 63.7013 124.957 63.673 124.69 63.673C124.277 63.673 123.951 63.7608 123.713 63.9365C123.48 64.1122 123.364 64.3417 123.364 64.625C123.364 64.812 123.424 64.9707 123.543 65.101C123.667 65.2257 123.829 65.3362 124.027 65.4325C124.231 65.5288 124.461 65.6167 124.716 65.696C124.971 65.7697 125.229 65.8518 125.489 65.9425C125.756 66.0332 126.016 66.138 126.271 66.257C126.526 66.3703 126.753 66.5177 126.951 66.699C127.155 66.8747 127.317 67.0872 127.436 67.3365C127.56 67.5858 127.623 67.8862 127.623 68.2375C127.623 68.6568 127.546 69.045 127.393 69.402C127.246 69.7533 127.025 70.0593 126.73 70.32C126.436 70.575 126.07 70.7762 125.634 70.9235C125.203 71.0652 124.704 71.136 124.138 71.136C123.837 71.136 123.543 71.1077 123.254 71.051C122.97 71 122.696 70.9263 122.429 70.83C122.169 70.7337 121.925 70.6203 121.698 70.49C121.477 70.3597 121.282 70.218 121.112 70.065L121.596 69.266C121.659 69.1697 121.732 69.096 121.817 69.045C121.902 68.994 122.01 68.9685 122.14 68.9685C122.271 68.9685 122.392 69.0053 122.506 69.079C122.625 69.1527 122.761 69.232 122.914 69.317C123.067 69.402 123.245 69.4813 123.449 69.555C123.659 69.6287 123.922 69.6655 124.24 69.6655C124.489 69.6655 124.702 69.6372 124.877 69.5805C125.059 69.5182 125.206 69.4388 125.319 69.3425C125.438 69.2462 125.523 69.1357 125.574 69.011C125.631 68.8807 125.659 68.7475 125.659 68.6115C125.659 68.4075 125.597 68.2403 125.472 68.11C125.353 67.9797 125.192 67.8663 124.988 67.77C124.789 67.6737 124.56 67.5887 124.299 67.515C124.044 67.4357 123.781 67.3507 123.509 67.26C123.242 67.1693 122.979 67.0645 122.718 66.9455C122.463 66.8208 122.234 66.665 122.03 66.478C121.831 66.291 121.67 66.0615 121.545 65.7895C121.426 65.5175 121.367 65.1888 121.367 64.8035C121.367 64.4465 121.438 64.1065 121.579 63.7835C121.721 63.4605 121.928 63.18 122.2 62.942C122.477 62.6983 122.82 62.5057 123.228 62.364C123.642 62.2167 124.118 62.143 124.656 62.143C125.257 62.143 125.804 62.2422 126.297 62.4405C126.79 62.6388 127.201 62.8995 127.529 63.2225L127.053 63.979ZM131.379 62.279V71H129.271V62.279H131.379ZM131.668 59.7375C131.668 59.9188 131.631 60.0888 131.558 60.2475C131.484 60.4062 131.385 60.545 131.26 60.664C131.141 60.783 130.999 60.8793 130.835 60.953C130.671 61.021 130.495 61.055 130.308 61.055C130.127 61.055 129.954 61.021 129.79 60.953C129.631 60.8793 129.492 60.783 129.373 60.664C129.254 60.545 129.158 60.4062 129.084 60.2475C129.016 60.0888 128.982 59.9188 128.982 59.7375C128.982 59.5505 129.016 59.3748 129.084 59.2105C129.158 59.0462 129.254 58.9045 129.373 58.7855C129.492 58.6665 129.631 58.573 129.79 58.505C129.954 58.4313 130.127 58.3945 130.308 58.3945C130.495 58.3945 130.671 58.4313 130.835 58.505C130.999 58.573 131.141 58.6665 131.26 58.7855C131.385 58.9045 131.484 59.0462 131.558 59.2105C131.631 59.3748 131.668 59.5505 131.668 59.7375ZM136.707 66.427C136.968 66.427 137.194 66.393 137.387 66.325C137.58 66.2513 137.738 66.1522 137.863 66.0275C137.993 65.9028 138.09 65.7527 138.152 65.577C138.22 65.4013 138.254 65.2087 138.254 64.999C138.254 64.5683 138.124 64.2283 137.863 63.979C137.608 63.724 137.223 63.5965 136.707 63.5965C136.191 63.5965 135.803 63.724 135.542 63.979C135.287 64.2283 135.16 64.5683 135.16 64.999C135.16 65.203 135.191 65.3928 135.253 65.5685C135.321 65.7442 135.418 65.8972 135.542 66.0275C135.673 66.1522 135.834 66.2513 136.027 66.325C136.225 66.393 136.452 66.427 136.707 66.427ZM139.078 71.391C139.078 71.221 139.027 71.0822 138.925 70.9745C138.823 70.8668 138.685 70.7847 138.509 70.728C138.333 70.6657 138.126 70.6203 137.888 70.592C137.656 70.5637 137.407 70.5438 137.14 70.5325C136.88 70.5155 136.608 70.5013 136.324 70.49C136.047 70.4787 135.775 70.456 135.508 70.422C135.276 70.5523 135.086 70.7053 134.939 70.881C134.797 71.0567 134.726 71.2607 134.726 71.493C134.726 71.646 134.763 71.7877 134.837 71.918C134.916 72.054 135.038 72.1702 135.202 72.2665C135.372 72.3628 135.591 72.4365 135.857 72.4875C136.123 72.5442 136.449 72.5725 136.834 72.5725C137.225 72.5725 137.563 72.5413 137.846 72.479C138.129 72.4223 138.362 72.3402 138.543 72.2325C138.73 72.1305 138.866 72.0058 138.951 71.8585C139.036 71.7168 139.078 71.561 139.078 71.391ZM141.169 62.5765V63.3585C141.169 63.6078 141.019 63.7608 140.719 63.8175L139.937 63.962C140.056 64.2623 140.115 64.591 140.115 64.948C140.115 65.3787 140.028 65.7697 139.852 66.121C139.682 66.4667 139.444 66.7613 139.138 67.005C138.832 67.2487 138.469 67.4385 138.05 67.5745C137.636 67.7048 137.189 67.77 136.707 67.77C136.537 67.77 136.373 67.7615 136.214 67.7445C136.055 67.7275 135.899 67.7048 135.746 67.6765C135.474 67.8408 135.338 68.025 135.338 68.229C135.338 68.4047 135.418 68.535 135.576 68.62C135.741 68.6993 135.956 68.756 136.222 68.79C136.489 68.824 136.792 68.8467 137.132 68.858C137.472 68.8637 137.82 68.8807 138.177 68.909C138.534 68.9373 138.883 68.9883 139.223 69.062C139.563 69.13 139.866 69.2405 140.132 69.3935C140.399 69.5465 140.611 69.7562 140.77 70.0225C140.934 70.2832 141.016 70.6203 141.016 71.034C141.016 71.4193 140.92 71.7933 140.727 72.156C140.54 72.5187 140.266 72.8417 139.903 73.125C139.546 73.4083 139.104 73.635 138.577 73.805C138.056 73.9807 137.461 74.0685 136.792 74.0685C136.135 74.0685 135.562 74.0033 135.075 73.873C134.588 73.7483 134.182 73.5783 133.859 73.363C133.536 73.1533 133.296 72.9097 133.137 72.632C132.978 72.3543 132.899 72.0653 132.899 71.765C132.899 71.357 133.021 71.017 133.264 70.745C133.514 70.4673 133.854 70.2463 134.284 70.082C134.052 69.963 133.868 69.8043 133.732 69.606C133.596 69.4077 133.528 69.147 133.528 68.824C133.528 68.6937 133.551 68.5605 133.596 68.4245C133.647 68.2828 133.718 68.144 133.808 68.008C133.905 67.872 134.024 67.7445 134.165 67.6255C134.307 67.5008 134.474 67.3903 134.667 67.294C134.225 67.056 133.876 66.7387 133.621 66.342C133.372 65.9453 133.247 65.4807 133.247 64.948C133.247 64.5173 133.332 64.1292 133.502 63.7835C133.678 63.4322 133.919 63.1347 134.225 62.891C134.537 62.6417 134.902 62.4518 135.321 62.3215C135.746 62.1912 136.208 62.126 136.707 62.126C137.081 62.126 137.432 62.1657 137.761 62.245C138.09 62.3187 138.39 62.4292 138.662 62.5765H141.169ZM144.464 63.35C144.64 63.1743 144.824 63.0128 145.017 62.8655C145.215 62.7125 145.422 62.585 145.637 62.483C145.858 62.3753 146.094 62.2932 146.343 62.2365C146.592 62.1742 146.864 62.143 147.159 62.143C147.635 62.143 148.057 62.2252 148.425 62.3895C148.794 62.5482 149.1 62.7748 149.343 63.0695C149.593 63.3585 149.78 63.707 149.904 64.115C150.035 64.5173 150.1 64.9622 150.1 65.4495V71H148V65.4495C148 64.9168 147.879 64.506 147.635 64.217C147.391 63.9223 147.02 63.775 146.521 63.775C146.159 63.775 145.819 63.8572 145.501 64.0215C145.184 64.1858 144.884 64.4097 144.6 64.693V71H142.501V62.279H143.784C144.056 62.279 144.235 62.4065 144.32 62.6615L144.464 63.35Z" fill="white"/>
<path d="M85.9175 87.78C85.9975 87.78 86.0675 87.8125 86.1275 87.8775L86.705 88.5C86.265 89.01 85.73 89.4075 85.1 89.6925C84.475 89.9775 83.7175 90.12 82.8275 90.12C82.0575 90.12 81.3575 89.9875 80.7275 89.7225C80.0975 89.4525 79.56 89.0775 79.115 88.5975C78.67 88.1125 78.325 87.5325 78.08 86.8575C77.835 86.1825 77.7125 85.44 77.7125 84.63C77.7125 83.82 77.84 83.0775 78.095 82.4025C78.35 81.7275 78.7075 81.1475 79.1675 80.6625C79.6325 80.1775 80.1875 79.8025 80.8325 79.5375C81.4775 79.2675 82.19 79.1325 82.97 79.1325C83.735 79.1325 84.41 79.255 84.995 79.5C85.58 79.745 86.095 80.0775 86.54 80.4975L86.06 81.165C86.03 81.215 85.99 81.2575 85.94 81.2925C85.895 81.3225 85.8325 81.3375 85.7525 81.3375C85.6625 81.3375 85.5525 81.29 85.4225 81.195C85.2925 81.095 85.1225 80.985 84.9125 80.865C84.7025 80.745 84.44 80.6375 84.125 80.5425C83.81 80.4425 83.4225 80.3925 82.9625 80.3925C82.4075 80.3925 81.9 80.49 81.44 80.685C80.98 80.875 80.5825 81.1525 80.2475 81.5175C79.9175 81.8825 79.66 82.3275 79.475 82.8525C79.29 83.3775 79.1975 83.97 79.1975 84.63C79.1975 85.3 79.2925 85.8975 79.4825 86.4225C79.6775 86.9475 79.94 87.3925 80.27 87.7575C80.605 88.1175 80.9975 88.3925 81.4475 88.5825C81.9025 88.7725 82.3925 88.8675 82.9175 88.8675C83.2375 88.8675 83.525 88.85 83.78 88.815C84.04 88.775 84.2775 88.715 84.4925 88.635C84.7125 88.555 84.915 88.455 85.1 88.335C85.29 88.21 85.4775 88.0625 85.6625 87.8925C85.7475 87.8175 85.8325 87.78 85.9175 87.78ZM93.0155 85.3725C93.0155 85.0625 92.9705 84.78 92.8805 84.525C92.7955 84.265 92.668 84.0425 92.498 83.8575C92.333 83.6675 92.1305 83.5225 91.8905 83.4225C91.6505 83.3175 91.378 83.265 91.073 83.265C90.433 83.265 89.9255 83.4525 89.5505 83.8275C89.1805 84.1975 88.9505 84.7125 88.8605 85.3725H93.0155ZM94.0955 88.935C93.9305 89.135 93.733 89.31 93.503 89.46C93.273 89.605 93.0255 89.725 92.7605 89.82C92.5005 89.915 92.2305 89.985 91.9505 90.03C91.6705 90.08 91.393 90.105 91.118 90.105C90.593 90.105 90.108 90.0175 89.663 89.8425C89.223 89.6625 88.8405 89.4025 88.5155 89.0625C88.1955 88.7175 87.9455 88.2925 87.7655 87.7875C87.5855 87.2825 87.4955 86.7025 87.4955 86.0475C87.4955 85.5175 87.5755 85.0225 87.7355 84.5625C87.9005 84.1025 88.1355 83.705 88.4405 83.37C88.7455 83.03 89.118 82.765 89.558 82.575C89.998 82.38 90.493 82.2825 91.043 82.2825C91.498 82.2825 91.918 82.36 92.303 82.515C92.693 82.665 93.028 82.885 93.308 83.175C93.593 83.46 93.8155 83.815 93.9755 84.24C94.1355 84.66 94.2155 85.14 94.2155 85.68C94.2155 85.89 94.193 86.03 94.148 86.1C94.103 86.17 94.018 86.205 93.893 86.205H88.8155C88.8305 86.685 88.8955 87.1025 89.0105 87.4575C89.1305 87.8125 89.2955 88.11 89.5055 88.35C89.7155 88.585 89.9655 88.7625 90.2555 88.8825C90.5455 88.9975 90.8705 89.055 91.2305 89.055C91.5655 89.055 91.853 89.0175 92.093 88.9425C92.338 88.8625 92.548 88.7775 92.723 88.6875C92.898 88.5975 93.043 88.515 93.158 88.44C93.278 88.36 93.3805 88.32 93.4655 88.32C93.5755 88.32 93.6605 88.3625 93.7205 88.4475L94.0955 88.935ZM97.1229 83.925C97.3629 83.405 97.6579 83 98.0079 82.71C98.3579 82.415 98.7854 82.2675 99.2904 82.2675C99.4504 82.2675 99.6029 82.285 99.7479 82.32C99.8979 82.355 100.03 82.41 100.145 82.485L100.048 83.4825C100.018 83.6075 99.9429 83.67 99.8229 83.67C99.7529 83.67 99.6504 83.655 99.5154 83.625C99.3804 83.595 99.2279 83.58 99.0579 83.58C98.8179 83.58 98.6029 83.615 98.4129 83.685C98.2279 83.755 98.0604 83.86 97.9104 84C97.7654 84.135 97.6329 84.305 97.5129 84.51C97.3979 84.71 97.2929 84.94 97.1979 85.2V90H95.8554V82.4025H96.6204C96.7654 82.4025 96.8654 82.43 96.9204 82.485C96.9754 82.54 97.0129 82.635 97.0329 82.77L97.1229 83.925ZM108.369 90H107.034V83.52H103.119V88.08C103.119 88.4 103.197 88.6375 103.352 88.7925C103.507 88.9475 103.707 89.025 103.952 89.025C104.092 89.025 104.212 89.0075 104.312 88.9725C104.417 88.9325 104.507 88.89 104.582 88.845C104.657 88.8 104.719 88.76 104.769 88.725C104.824 88.685 104.872 88.665 104.912 88.665C104.982 88.665 105.044 88.7075 105.099 88.7925L105.489 89.43C105.259 89.645 104.982 89.815 104.657 89.94C104.332 90.06 103.997 90.12 103.652 90.12C103.052 90.12 102.589 89.9525 102.264 89.6175C101.944 89.2825 101.784 88.8 101.784 88.17V83.52H100.869C100.789 83.52 100.722 83.4975 100.667 83.4525C100.612 83.4025 100.584 83.3275 100.584 83.2275V82.695L101.829 82.53L102.137 80.19C102.152 80.115 102.184 80.055 102.234 80.01C102.289 79.96 102.359 79.935 102.444 79.935H103.119V82.5525H108.369V90ZM108.699 79.965C108.699 80.095 108.672 80.2175 108.617 80.3325C108.567 80.4425 108.497 80.54 108.407 80.625C108.322 80.71 108.222 80.7775 108.107 80.8275C107.992 80.8775 107.869 80.9025 107.739 80.9025C107.609 80.9025 107.487 80.8775 107.372 80.8275C107.262 80.7775 107.164 80.71 107.079 80.625C106.994 80.54 106.927 80.4425 106.877 80.3325C106.827 80.2175 106.802 80.095 106.802 79.965C106.802 79.835 106.827 79.7125 106.877 79.5975C106.927 79.4775 106.994 79.375 107.079 79.29C107.164 79.2 107.262 79.13 107.372 79.08C107.487 79.03 107.609 79.005 107.739 79.005C107.869 79.005 107.992 79.03 108.107 79.08C108.222 79.13 108.322 79.2 108.407 79.29C108.497 79.375 108.567 79.4775 108.617 79.5975C108.672 79.7125 108.699 79.835 108.699 79.965ZM111.072 90V83.5425L110.232 83.445C110.122 83.42 110.035 83.3825 109.97 83.3325C109.905 83.2775 109.872 83.2 109.872 83.1V82.5525H111.072V82.1325C111.072 81.6675 111.145 81.2425 111.29 80.8575C111.435 80.4675 111.652 80.1325 111.942 79.8525C112.232 79.5725 112.592 79.355 113.022 79.2C113.457 79.045 113.96 78.9675 114.53 78.9675C114.72 78.9675 114.915 78.98 115.115 79.005C115.315 79.03 115.487 79.0675 115.632 79.1175L115.58 79.815C115.575 79.865 115.555 79.9 115.52 79.92C115.49 79.94 115.447 79.9525 115.392 79.9575C115.337 79.9625 115.267 79.965 115.182 79.965C115.102 79.96 115.01 79.9575 114.905 79.9575C114.015 79.9575 113.37 80.1425 112.97 80.5125C112.57 80.8775 112.37 81.43 112.37 82.17V82.5525H116.96V90H115.617V83.52H112.407V90H111.072ZM124.434 83.7525C124.394 83.8075 124.354 83.85 124.314 83.88C124.274 83.91 124.219 83.925 124.149 83.925C124.074 83.925 123.991 83.895 123.901 83.835C123.811 83.77 123.699 83.7 123.564 83.625C123.434 83.55 123.271 83.4825 123.076 83.4225C122.886 83.3575 122.651 83.325 122.371 83.325C121.996 83.325 121.666 83.3925 121.381 83.5275C121.096 83.6575 120.856 83.8475 120.661 84.0975C120.471 84.3475 120.326 84.65 120.226 85.005C120.131 85.36 120.084 85.7575 120.084 86.1975C120.084 86.6575 120.136 87.0675 120.241 87.4275C120.346 87.7825 120.494 88.0825 120.684 88.3275C120.879 88.5675 121.111 88.7525 121.381 88.8825C121.656 89.0075 121.964 89.07 122.304 89.07C122.629 89.07 122.896 89.0325 123.106 88.9575C123.316 88.8775 123.489 88.79 123.624 88.695C123.764 88.6 123.879 88.515 123.969 88.44C124.064 88.36 124.156 88.32 124.246 88.32C124.356 88.32 124.441 88.3625 124.501 88.4475L124.876 88.935C124.711 89.14 124.524 89.315 124.314 89.46C124.104 89.605 123.876 89.7275 123.631 89.8275C123.391 89.9225 123.139 89.9925 122.874 90.0375C122.609 90.0825 122.339 90.105 122.064 90.105C121.589 90.105 121.146 90.0175 120.736 89.8425C120.331 89.6675 119.979 89.415 119.679 89.085C119.379 88.75 119.144 88.34 118.974 87.855C118.804 87.37 118.719 86.8175 118.719 86.1975C118.719 85.6325 118.796 85.11 118.951 84.63C119.111 84.15 119.341 83.7375 119.641 83.3925C119.946 83.0425 120.319 82.77 120.759 82.575C121.204 82.38 121.714 82.2825 122.289 82.2825C122.824 82.2825 123.294 82.37 123.699 82.545C124.109 82.715 124.471 82.9575 124.786 83.2725L124.434 83.7525ZM130.427 86.58C129.812 86.6 129.287 86.65 128.852 86.73C128.422 86.805 128.069 86.905 127.794 87.03C127.524 87.155 127.327 87.3025 127.202 87.4725C127.082 87.6425 127.022 87.8325 127.022 88.0425C127.022 88.2425 127.054 88.415 127.119 88.56C127.184 88.705 127.272 88.825 127.382 88.92C127.497 89.01 127.629 89.0775 127.779 89.1225C127.934 89.1625 128.099 89.1825 128.274 89.1825C128.509 89.1825 128.724 89.16 128.919 89.115C129.114 89.065 129.297 88.995 129.467 88.905C129.642 88.815 129.807 88.7075 129.962 88.5825C130.122 88.4575 130.277 88.315 130.427 88.155V86.58ZM126.114 83.475C126.534 83.07 126.987 82.7675 127.472 82.5675C127.957 82.3675 128.494 82.2675 129.084 82.2675C129.509 82.2675 129.887 82.3375 130.217 82.4775C130.547 82.6175 130.824 82.8125 131.049 83.0625C131.274 83.3125 131.444 83.615 131.559 83.97C131.674 84.325 131.732 84.715 131.732 85.14V90H131.139C131.009 90 130.909 89.98 130.839 89.94C130.769 89.895 130.714 89.81 130.674 89.685L130.524 88.965C130.324 89.15 130.129 89.315 129.939 89.46C129.749 89.6 129.549 89.72 129.339 89.82C129.129 89.915 128.904 89.9875 128.664 90.0375C128.429 90.0925 128.167 90.12 127.877 90.12C127.582 90.12 127.304 90.08 127.044 90C126.784 89.915 126.557 89.79 126.362 89.625C126.172 89.46 126.019 89.2525 125.904 89.0025C125.794 88.7475 125.739 88.4475 125.739 88.1025C125.739 87.8025 125.822 87.515 125.987 87.24C126.152 86.96 126.419 86.7125 126.789 86.4975C127.159 86.2825 127.642 86.1075 128.237 85.9725C128.832 85.8325 129.562 85.7525 130.427 85.7325V85.14C130.427 84.55 130.299 84.105 130.044 83.805C129.789 83.5 129.417 83.3475 128.927 83.3475C128.597 83.3475 128.319 83.39 128.094 83.475C127.874 83.555 127.682 83.6475 127.517 83.7525C127.357 83.8525 127.217 83.945 127.097 84.03C126.982 84.11 126.867 84.15 126.752 84.15C126.662 84.15 126.584 84.1275 126.519 84.0825C126.454 84.0325 126.399 83.9725 126.354 83.9025L126.114 83.475ZM135.995 90.12C135.395 90.12 134.933 89.9525 134.608 89.6175C134.288 89.2825 134.128 88.8 134.128 88.17V83.52H133.213C133.133 83.52 133.065 83.4975 133.01 83.4525C132.955 83.4025 132.928 83.3275 132.928 83.2275V82.695L134.173 82.5375L134.48 80.19C134.495 80.115 134.528 80.055 134.578 80.01C134.633 79.96 134.703 79.935 134.788 79.935H135.463V82.5525H137.66V83.52H135.463V88.08C135.463 88.4 135.54 88.6375 135.695 88.7925C135.85 88.9475 136.05 89.025 136.295 89.025C136.435 89.025 136.555 89.0075 136.655 88.9725C136.76 88.9325 136.85 88.89 136.925 88.845C137 88.8 137.063 88.76 137.113 88.725C137.168 88.685 137.215 88.665 137.255 88.665C137.325 88.665 137.388 88.7075 137.443 88.7925L137.833 89.43C137.603 89.645 137.325 89.815 137 89.94C136.675 90.06 136.34 90.12 135.995 90.12ZM144.08 85.3725C144.08 85.0625 144.035 84.78 143.945 84.525C143.86 84.265 143.733 84.0425 143.563 83.8575C143.398 83.6675 143.195 83.5225 142.955 83.4225C142.715 83.3175 142.443 83.265 142.138 83.265C141.498 83.265 140.99 83.4525 140.615 83.8275C140.245 84.1975 140.015 84.7125 139.925 85.3725H144.08ZM145.16 88.935C144.995 89.135 144.798 89.31 144.568 89.46C144.338 89.605 144.09 89.725 143.825 89.82C143.565 89.915 143.295 89.985 143.015 90.03C142.735 90.08 142.458 90.105 142.183 90.105C141.658 90.105 141.173 90.0175 140.728 89.8425C140.288 89.6625 139.905 89.4025 139.58 89.0625C139.26 88.7175 139.01 88.2925 138.83 87.7875C138.65 87.2825 138.56 86.7025 138.56 86.0475C138.56 85.5175 138.64 85.0225 138.8 84.5625C138.965 84.1025 139.2 83.705 139.505 83.37C139.81 83.03 140.183 82.765 140.623 82.575C141.063 82.38 141.558 82.2825 142.108 82.2825C142.563 82.2825 142.983 82.36 143.368 82.515C143.758 82.665 144.093 82.885 144.373 83.175C144.658 83.46 144.88 83.815 145.04 84.24C145.2 84.66 145.28 85.14 145.28 85.68C145.28 85.89 145.258 86.03 145.213 86.1C145.168 86.17 145.083 86.205 144.958 86.205H139.88C139.895 86.685 139.96 87.1025 140.075 87.4575C140.195 87.8125 140.36 88.11 140.57 88.35C140.78 88.585 141.03 88.7625 141.32 88.8825C141.61 88.9975 141.935 89.055 142.295 89.055C142.63 89.055 142.918 89.0175 143.158 88.9425C143.403 88.8625 143.613 88.7775 143.788 88.6875C143.963 88.5975 144.108 88.515 144.223 88.44C144.343 88.36 144.445 88.32 144.53 88.32C144.64 88.32 144.725 88.3625 144.785 88.4475L145.16 88.935Z" fill="white"/>
<rect x="77" y="180" width="75" height="4" fill="#C4C4C4" fill-opacity="0.45"/>
<rect x="77" y="195" width="141" height="4" fill="#C4C4C4" fill-opacity="0.45"/>
<rect x="77" y="210" width="97" height="4" fill="#C4C4C4" fill-opacity="0.45"/>
<rect x="77" y="225" width="166" height="6" fill="#C4C4C4" fill-opacity="0.45"/>
<defs>
<filter id="filter0_bdd_49_230" x="0" y="0" width="455" height="340" filterUnits="userSpaceOnUse" color-interpolation-filters="sRGB">
<feFlood flood-opacity="0" result="BackgroundImageFix"/>
<feGaussianBlur in="BackgroundImage" stdDeviation="10"/>
<feComposite in2="SourceAlpha" operator="in" result="effect1_backgroundBlur_49_230"/>
<feColorMatrix in="SourceAlpha" type="matrix" values="0 0 0 0 0 0 0 0 0 0 0 0 0 0 0 0 0 0 127 0" result="hardAlpha"/>
<feOffset dy="30"/>
<feGaussianBlur stdDeviation="30"/>
<feComposite in2="hardAlpha" operator="out"/>
<feColorMatrix type="matrix" values="0 0 0 0 0.152941 0 0 0 0 0.301961 0 0 0 0 0.6 0 0 0 0.2 0"/>
<feBlend mode="normal" in2="effect1_backgroundBlur_49_230" result="effect2_dropShadow_49_230"/>
<feColorMatrix in="SourceAlpha" type="matrix" values="0 0 0 0 0 0 0 0 0 0 0 0 0 0 0 0 0 0 127 0" result="hardAlpha"/>
<feMorphology radius="0.5" operator="dilate" in="SourceAlpha" result="effect3_dropShadow_49_230"/>
<feOffset/>
<feComposite in2="hardAlpha" operator="out"/>
<feColorMatrix type="matrix" values="0 0 0 0 1 0 0 0 0 1 0 0 0 0 1 0 0 0 0.3 0"/>
<feBlend mode="normal" in2="effect2_dropShadow_49_230" result="effect3_dropShadow_49_230"/>
<feBlend mode="normal" in="SourceGraphic" in2="effect3_dropShadow_49_230" result="shape"/>
</filter>
<linearGradient id="paint0_linear_49_230" x1="60" y1="13.5" x2="384.5" y2="260.5" gradientUnits="userSpaceOnUse">
<stop offset="0.145833" stop-color="#00C844"/>
<stop offset="0.598958" stop-color="#19ABDA" stop-opacity="0.622976"/>
<stop offset="1" stop-color="#23B1A9" stop-opacity="0.612323"/>
</linearGradient>
</defs>
</svg>
