<svg width="122" height="140" viewBox="0 0 122 140" fill="none" xmlns="http://www.w3.org/2000/svg">
<g filter="url(#filter0_d_428_4)">
<circle cx="61" cy="79" r="60" fill="url(#paint0_linear_428_4)" shape-rendering="crispEdges"/>
</g>
<g filter="url(#filter1_d_428_4)">
<path fill-rule="evenodd" clip-rule="evenodd" d="M61 44C73.1503 44 83 34.1503 83 22C83 9.84974 73.1503 0 61 0C48.8497 0 39 9.84974 39 22C39 34.1503 48.8497 44 61 44Z" fill="black"/>
<path fill-rule="evenodd" clip-rule="evenodd" d="M64.4375 9.625C62.2495 9.625 60.151 10.4942 58.6039 12.0414C57.0567 13.5885 56.1875 15.687 56.1875 17.875H64.4375V9.625ZM64.4375 9.625V17.875C68.9938 17.875 72.6875 14.1813 72.6875 9.625H64.4375Z" fill="#44D19F"/>
<path fill-rule="evenodd" clip-rule="evenodd" d="M47.9375 17.875C47.9375 20.063 48.8067 22.1614 50.3539 23.7085C51.901 25.2557 53.9995 26.1249 56.1875 26.1249V17.8749C56.1875 16.7915 55.9741 15.7188 55.5595 14.7179C55.1449 13.7169 54.5372 12.8074 53.7711 12.0414C53.005 11.2753 52.0956 10.6676 51.0946 10.253C50.0937 9.8384 49.0209 9.625 47.9375 9.625V17.875Z" fill="url(#paint1_linear_428_4)"/>
<path d="M64.4375 17.875C66.0692 17.875 67.6642 18.3588 69.021 19.2654C70.3777 20.1719 71.4351 21.4604 72.0595 22.9679C72.6839 24.4753 72.8473 26.1341 72.529 27.7345C72.2107 29.3348 71.4249 30.8048 70.2711 31.9586C69.1173 33.1124 67.6473 33.8982 66.047 34.2165C64.4466 34.5348 62.7878 34.3714 61.2804 33.747C59.7729 33.1226 58.4844 32.0652 57.5779 30.7085C56.6713 29.3517 56.1875 27.7567 56.1875 26.125H64.4375V17.875Z" fill="url(#paint2_linear_428_4)"/>
<path d="M56.1875 30.25C56.1875 32.5282 54.3407 34.375 52.0625 34.375C49.7843 34.375 47.9375 32.5282 47.9375 30.25C47.9375 27.9718 49.7843 26.125 52.0625 26.125C53.161 26.125 56.1875 26.125 56.1875 26.125C56.1875 26.125 56.1875 29.0703 56.1875 30.25Z" fill="white"/>
</g>
<path d="M32.1591 70.504C32.4051 70.456 32.6421 70.423 32.8701 70.405C33.0981 70.387 33.3201 70.378 33.5361 70.378C34.2261 70.378 34.8351 70.483 35.3631 70.693C35.8911 70.903 36.3351 71.191 36.6951 71.557C37.0551 71.917 37.3251 72.343 37.5051 72.835C37.6911 73.321 37.7841 73.843 37.7841 74.401C37.7841 75.103 37.6581 75.745 37.4061 76.327C37.1601 76.903 36.8151 77.401 36.3711 77.821C35.9271 78.241 35.3961 78.568 34.7781 78.802C34.1661 79.03 33.4941 79.144 32.7621 79.144C32.3361 79.144 31.9281 79.099 31.5381 79.009C31.1541 78.919 30.7911 78.799 30.4491 78.649C30.1131 78.493 29.8011 78.316 29.5131 78.118C29.2251 77.914 28.9641 77.698 28.7301 77.47L29.5941 76.318C29.6841 76.198 29.7891 76.108 29.9091 76.048C30.0291 75.982 30.1581 75.949 30.2961 75.949C30.4761 75.949 30.6441 76 30.8001 76.102C30.9621 76.198 31.1361 76.306 31.3221 76.426C31.5141 76.54 31.7361 76.645 31.9881 76.741C32.2401 76.837 32.5521 76.885 32.9241 76.885C33.2961 76.885 33.6141 76.825 33.8781 76.705C34.1421 76.579 34.3551 76.411 34.5171 76.201C34.6851 75.985 34.8051 75.736 34.8771 75.454C34.9551 75.166 34.9941 74.86 34.9941 74.536C34.9941 73.9 34.8141 73.417 34.4541 73.087C34.0941 72.751 33.5841 72.583 32.9241 72.583C32.3361 72.583 31.7601 72.694 31.1961 72.916L29.4681 72.448L30.5841 65.887H37.2981V67.039C37.2981 67.231 37.2681 67.405 37.2081 67.561C37.1481 67.717 37.0521 67.855 36.9201 67.975C36.7941 68.089 36.6261 68.179 36.4161 68.245C36.2061 68.305 35.9541 68.335 35.6601 68.335H32.5281L32.1591 70.504ZM48.6845 72.439C48.6845 73.585 48.5615 74.578 48.3155 75.418C48.0695 76.258 47.7275 76.954 47.2895 77.506C46.8575 78.058 46.3415 78.469 45.7415 78.739C45.1475 79.009 44.5025 79.144 43.8065 79.144C43.1105 79.144 42.4655 79.009 41.8715 78.739C41.2835 78.469 40.7735 78.058 40.3415 77.506C39.9095 76.954 39.5705 76.258 39.3245 75.418C39.0845 74.578 38.9645 73.585 38.9645 72.439C38.9645 71.293 39.0845 70.3 39.3245 69.46C39.5705 68.62 39.9095 67.924 40.3415 67.372C40.7735 66.82 41.2835 66.412 41.8715 66.148C42.4655 65.878 43.1105 65.743 43.8065 65.743C44.5025 65.743 45.1475 65.878 45.7415 66.148C46.3415 66.412 46.8575 66.82 47.2895 67.372C47.7275 67.924 48.0695 68.62 48.3155 69.46C48.5615 70.3 48.6845 71.293 48.6845 72.439ZM45.8045 72.439C45.8045 71.533 45.7475 70.792 45.6335 70.216C45.5195 69.634 45.3665 69.178 45.1745 68.848C44.9885 68.518 44.7755 68.293 44.5355 68.173C44.2955 68.047 44.0525 67.984 43.8065 67.984C43.5605 67.984 43.3175 68.047 43.0775 68.173C42.8435 68.293 42.6335 68.518 42.4475 68.848C42.2675 69.178 42.1205 69.634 42.0065 70.216C41.8985 70.792 41.8445 71.533 41.8445 72.439C41.8445 73.351 41.8985 74.095 42.0065 74.671C42.1205 75.247 42.2675 75.703 42.4475 76.039C42.6335 76.369 42.8435 76.597 43.0775 76.723C43.3175 76.843 43.5605 76.903 43.8065 76.903C44.0525 76.903 44.2955 76.843 44.5355 76.723C44.7755 76.597 44.9885 76.369 45.1745 76.039C45.3665 75.703 45.5195 75.247 45.6335 74.671C45.7475 74.095 45.8045 73.351 45.8045 72.439ZM55.9399 69.064C55.9399 69.544 55.8529 69.982 55.6789 70.378C55.5049 70.774 55.2739 71.116 54.9859 71.404C54.6979 71.686 54.3619 71.905 53.9779 72.061C53.5999 72.217 53.2039 72.295 52.7899 72.295C52.3339 72.295 51.9139 72.217 51.5299 72.061C51.1519 71.905 50.8219 71.686 50.5399 71.404C50.2639 71.116 50.0479 70.774 49.8919 70.378C49.7359 69.982 49.6579 69.544 49.6579 69.064C49.6579 68.566 49.7359 68.116 49.8919 67.714C50.0479 67.306 50.2639 66.958 50.5399 66.67C50.8219 66.382 51.1519 66.16 51.5299 66.004C51.9139 65.842 52.3339 65.761 52.7899 65.761C53.2459 65.761 53.6659 65.842 54.0499 66.004C54.4399 66.16 54.7729 66.382 55.0489 66.67C55.3309 66.958 55.5499 67.306 55.7059 67.714C55.8619 68.116 55.9399 68.566 55.9399 69.064ZM53.7979 69.064C53.7979 68.758 53.7709 68.506 53.7169 68.308C53.6689 68.104 53.5999 67.942 53.5099 67.822C53.4199 67.702 53.3119 67.618 53.1859 67.57C53.0659 67.522 52.9339 67.498 52.7899 67.498C52.6459 67.498 52.5139 67.522 52.3939 67.57C52.2739 67.618 52.1719 67.702 52.0879 67.822C52.0039 67.942 51.9379 68.104 51.8899 68.308C51.8419 68.506 51.8179 68.758 51.8179 69.064C51.8179 69.352 51.8419 69.592 51.8899 69.784C51.9379 69.976 52.0039 70.129 52.0879 70.243C52.1719 70.357 52.2739 70.438 52.3939 70.486C52.5139 70.534 52.6459 70.558 52.7899 70.558C52.9339 70.558 53.0659 70.534 53.1859 70.486C53.3119 70.438 53.4199 70.357 53.5099 70.243C53.5999 70.129 53.6689 69.976 53.7169 69.784C53.7709 69.592 53.7979 69.352 53.7979 69.064ZM60.0619 66.301C60.1519 66.199 60.2629 66.106 60.3949 66.022C60.5269 65.932 60.7099 65.887 60.9439 65.887H62.9779L53.0959 78.604C53.0059 78.718 52.8919 78.814 52.7539 78.892C52.6219 78.964 52.4599 79 52.2679 79H50.1799L60.0619 66.301ZM63.4819 75.922C63.4819 76.402 63.3949 76.843 63.2209 77.245C63.0469 77.641 62.8159 77.983 62.5279 78.271C62.2399 78.553 61.9039 78.772 61.5199 78.928C61.1419 79.084 60.7459 79.162 60.3319 79.162C59.8759 79.162 59.4559 79.084 59.0719 78.928C58.6939 78.772 58.3639 78.553 58.0819 78.271C57.8059 77.983 57.5899 77.641 57.4339 77.245C57.2779 76.843 57.1999 76.402 57.1999 75.922C57.1999 75.424 57.2779 74.974 57.4339 74.572C57.5899 74.164 57.8059 73.816 58.0819 73.528C58.3639 73.24 58.6939 73.018 59.0719 72.862C59.4559 72.7 59.8759 72.619 60.3319 72.619C60.7879 72.619 61.2079 72.7 61.5919 72.862C61.9819 73.018 62.3149 73.24 62.5909 73.528C62.8729 73.816 63.0919 74.164 63.2479 74.572C63.4039 74.974 63.4819 75.424 63.4819 75.922ZM61.3399 75.922C61.3399 75.622 61.3129 75.373 61.2589 75.175C61.2109 74.971 61.1419 74.809 61.0519 74.689C60.9619 74.569 60.8539 74.485 60.7279 74.437C60.6079 74.389 60.4759 74.365 60.3319 74.365C60.1879 74.365 60.0559 74.389 59.9359 74.437C59.8159 74.485 59.7139 74.569 59.6299 74.689C59.5459 74.809 59.4799 74.971 59.4319 75.175C59.3839 75.373 59.3599 75.622 59.3599 75.922C59.3599 76.21 59.3839 76.45 59.4319 76.642C59.4799 76.834 59.5459 76.987 59.6299 77.101C59.7139 77.215 59.8159 77.296 59.9359 77.344C60.0559 77.392 60.1879 77.416 60.3319 77.416C60.4759 77.416 60.6079 77.392 60.7279 77.344C60.8539 77.296 60.9619 77.215 61.0519 77.101C61.1419 76.987 61.2109 76.834 61.2589 76.642C61.3129 76.45 61.3399 76.21 61.3399 75.922ZM73.5058 69.523C74.2138 69.523 74.8588 69.634 75.4408 69.856C76.0228 70.078 76.5208 70.396 76.9348 70.81C77.3548 71.224 77.6788 71.728 77.9068 72.322C78.1408 72.91 78.2578 73.573 78.2578 74.311C78.2578 75.055 78.1408 75.727 77.9068 76.327C77.6788 76.921 77.3548 77.428 76.9348 77.848C76.5208 78.262 76.0228 78.583 75.4408 78.811C74.8588 79.033 74.2138 79.144 73.5058 79.144C72.7918 79.144 72.1408 79.033 71.5528 78.811C70.9708 78.583 70.4668 78.262 70.0408 77.848C69.6208 77.428 69.2938 76.921 69.0598 76.327C68.8318 75.727 68.7178 75.055 68.7178 74.311C68.7178 73.573 68.8318 72.91 69.0598 72.322C69.2938 71.728 69.6208 71.224 70.0408 70.81C70.4668 70.396 70.9708 70.078 71.5528 69.856C72.1408 69.634 72.7918 69.523 73.5058 69.523ZM73.5058 77.074C74.1478 77.074 74.6188 76.849 74.9188 76.399C75.2248 75.943 75.3778 75.253 75.3778 74.329C75.3778 73.405 75.2248 72.718 74.9188 72.268C74.6188 71.818 74.1478 71.593 73.5058 71.593C72.8458 71.593 72.3628 71.818 72.0568 72.268C71.7508 72.718 71.5978 73.405 71.5978 74.329C71.5978 75.253 71.7508 75.943 72.0568 76.399C72.3628 76.849 72.8458 77.074 73.5058 77.074ZM80.0921 79V71.584L79.4801 71.458C79.2701 71.41 79.0991 71.335 78.9671 71.233C78.8411 71.131 78.7781 70.981 78.7781 70.783V69.685H80.0921V69.334C80.0921 68.8 80.1761 68.317 80.3441 67.885C80.5181 67.447 80.7641 67.075 81.0821 66.769C81.4061 66.463 81.7991 66.229 82.2611 66.067C82.7231 65.899 83.2481 65.815 83.8361 65.815C84.0641 65.815 84.2741 65.83 84.4661 65.86C84.6581 65.884 84.8591 65.923 85.0691 65.977L85.0151 67.336C85.0031 67.528 84.9221 67.663 84.7721 67.741C84.6281 67.813 84.4781 67.849 84.3221 67.849C84.0761 67.849 83.8571 67.873 83.6651 67.921C83.4731 67.969 83.3111 68.053 83.1791 68.173C83.0531 68.293 82.9571 68.455 82.8911 68.659C82.8251 68.857 82.7921 69.109 82.7921 69.415V69.685H86.0681V68.983C86.0681 68.449 86.1521 67.966 86.3201 67.534C86.4941 67.102 86.7401 66.733 87.0581 66.427C87.3821 66.121 87.7751 65.884 88.2371 65.716C88.6991 65.548 89.2241 65.464 89.8121 65.464C90.0401 65.464 90.2501 65.479 90.4421 65.509C90.6341 65.533 90.8351 65.575 91.0451 65.635L90.9911 66.994C90.9851 67.09 90.9611 67.171 90.9191 67.237C90.8771 67.297 90.8201 67.348 90.7481 67.39C90.6821 67.426 90.6101 67.453 90.5321 67.471C90.4541 67.489 90.3761 67.498 90.2981 67.498C90.0521 67.498 89.8331 67.522 89.6411 67.57C89.4491 67.618 89.2871 67.705 89.1551 67.831C89.0291 67.951 88.9331 68.113 88.8671 68.317C88.8011 68.515 88.7681 68.767 88.7681 69.073V69.685H90.9551V71.593H88.8581V79H86.0681V71.593H82.8821V79H80.0921ZM33.8734 90.551C33.7834 90.695 33.6874 90.803 33.5854 90.875C33.4894 90.947 33.3634 90.983 33.2074 90.983C33.0694 90.983 32.9194 90.941 32.7574 90.857C32.6014 90.767 32.4214 90.668 32.2174 90.56C32.0194 90.452 31.7914 90.356 31.5334 90.272C31.2754 90.182 30.9814 90.137 30.6514 90.137C30.0814 90.137 29.6554 90.26 29.3734 90.506C29.0974 90.746 28.9594 91.073 28.9594 91.487C28.9594 91.751 29.0434 91.97 29.2114 92.144C29.3794 92.318 29.5984 92.468 29.8684 92.594C30.1444 92.72 30.4564 92.837 30.8044 92.945C31.1584 93.047 31.5184 93.164 31.8844 93.296C32.2504 93.422 32.6074 93.572 32.9554 93.746C33.3094 93.92 33.6214 94.142 33.8914 94.412C34.1674 94.682 34.3894 95.012 34.5574 95.402C34.7254 95.786 34.8094 96.251 34.8094 96.797C34.8094 97.403 34.7044 97.97 34.4944 98.498C34.2844 99.026 33.9784 99.488 33.5764 99.884C33.1804 100.274 32.6884 100.583 32.1004 100.811C31.5184 101.033 30.8554 101.144 30.1114 101.144C29.7034 101.144 29.2864 101.102 28.8604 101.018C28.4404 100.934 28.0324 100.817 27.6364 100.667C27.2404 100.511 26.8684 100.328 26.5204 100.118C26.1724 99.908 25.8694 99.674 25.6114 99.416L26.5114 97.994C26.5834 97.892 26.6764 97.808 26.7904 97.742C26.9104 97.67 27.0394 97.634 27.1774 97.634C27.3574 97.634 27.5374 97.691 27.7174 97.805C27.9034 97.919 28.1104 98.045 28.3384 98.183C28.5724 98.321 28.8394 98.447 29.1394 98.561C29.4394 98.675 29.7934 98.732 30.2014 98.732C30.7534 98.732 31.1824 98.612 31.4884 98.372C31.7944 98.126 31.9474 97.739 31.9474 97.211C31.9474 96.905 31.8634 96.656 31.6954 96.464C31.5274 96.272 31.3054 96.113 31.0294 95.987C30.7594 95.861 30.4504 95.75 30.1024 95.654C29.7544 95.558 29.3974 95.453 29.0314 95.339C28.6654 95.219 28.3084 95.075 27.9604 94.907C27.6124 94.733 27.3004 94.508 27.0244 94.232C26.7544 93.95 26.5354 93.602 26.3674 93.188C26.1994 92.768 26.1154 92.252 26.1154 91.64C26.1154 91.148 26.2144 90.668 26.4124 90.2C26.6104 89.732 26.9014 89.315 27.2854 88.949C27.6694 88.583 28.1404 88.292 28.6984 88.076C29.2564 87.854 29.8954 87.743 30.6154 87.743C31.0174 87.743 31.4074 87.776 31.7854 87.842C32.1694 87.902 32.5324 87.995 32.8744 88.121C33.2164 88.241 33.5344 88.388 33.8284 88.562C34.1284 88.73 34.3954 88.922 34.6294 89.138L33.8734 90.551ZM38.9557 92.486C39.2917 92.198 39.6547 91.967 40.0447 91.793C40.4407 91.613 40.9117 91.523 41.4577 91.523C41.9677 91.523 42.4177 91.613 42.8077 91.793C43.2037 91.967 43.5367 92.213 43.8067 92.531C44.0767 92.843 44.2807 93.218 44.4187 93.656C44.5567 94.088 44.6257 94.559 44.6257 95.069V101H41.8357V95.069C41.8357 94.613 41.7307 94.259 41.5207 94.007C41.3107 93.749 41.0017 93.62 40.5937 93.62C40.2877 93.62 39.9997 93.686 39.7297 93.818C39.4657 93.944 39.2077 94.118 38.9557 94.34V101H36.1657V87.527H38.9557V92.486ZM51.2463 97.202C50.6883 97.226 50.2293 97.274 49.8693 97.346C49.5093 97.418 49.2243 97.508 49.0143 97.616C48.8043 97.724 48.6573 97.847 48.5733 97.985C48.4953 98.123 48.4563 98.273 48.4563 98.435C48.4563 98.753 48.5433 98.978 48.7173 99.11C48.8913 99.236 49.1463 99.299 49.4823 99.299C49.8423 99.299 50.1573 99.236 50.4273 99.11C50.6973 98.984 50.9703 98.78 51.2463 98.498V97.202ZM46.2243 92.963C46.7883 92.465 47.4123 92.096 48.0963 91.856C48.7863 91.61 49.5243 91.487 50.3103 91.487C50.8743 91.487 51.3813 91.58 51.8313 91.766C52.2873 91.946 52.6713 92.201 52.9833 92.531C53.3013 92.855 53.5443 93.242 53.7123 93.692C53.8803 94.142 53.9643 94.634 53.9643 95.168V101H52.6863C52.4223 101 52.2213 100.964 52.0833 100.892C51.9513 100.82 51.8403 100.67 51.7503 100.442L51.5523 99.929C51.3183 100.127 51.0933 100.301 50.8773 100.451C50.6613 100.601 50.4363 100.73 50.2023 100.838C49.9743 100.94 49.7283 101.015 49.4643 101.063C49.2063 101.117 48.9183 101.144 48.6003 101.144C48.1743 101.144 47.7873 101.09 47.4393 100.982C47.0913 100.868 46.7943 100.703 46.5483 100.487C46.3083 100.271 46.1223 100.004 45.9903 99.686C45.8583 99.362 45.7923 98.99 45.7923 98.57C45.7923 98.234 45.8763 97.895 46.0443 97.553C46.2123 97.205 46.5033 96.89 46.9173 96.608C47.3313 96.32 47.8893 96.08 48.5913 95.888C49.2933 95.696 50.1783 95.588 51.2463 95.564V95.168C51.2463 94.622 51.1323 94.229 50.9043 93.989C50.6823 93.743 50.3643 93.62 49.9503 93.62C49.6203 93.62 49.3503 93.656 49.1403 93.728C48.9303 93.8 48.7413 93.881 48.5733 93.971C48.4113 94.061 48.2523 94.142 48.0963 94.214C47.9403 94.286 47.7543 94.322 47.5383 94.322C47.3463 94.322 47.1843 94.274 47.0523 94.178C46.9203 94.082 46.8123 93.968 46.7283 93.836L46.2243 92.963ZM58.5377 98.462C58.7477 98.69 58.9757 98.852 59.2217 98.948C59.4677 99.044 59.7257 99.092 59.9957 99.092C60.2537 99.092 60.4907 99.041 60.7067 98.939C60.9227 98.837 61.1087 98.675 61.2647 98.453C61.4267 98.225 61.5527 97.931 61.6427 97.571C61.7327 97.211 61.7777 96.773 61.7777 96.257C61.7777 95.765 61.7417 95.351 61.6697 95.015C61.5977 94.679 61.4957 94.409 61.3637 94.205C61.2377 93.995 61.0847 93.845 60.9047 93.755C60.7247 93.665 60.5237 93.62 60.3017 93.62C59.8937 93.62 59.5577 93.695 59.2937 93.845C59.0297 93.995 58.7777 94.214 58.5377 94.502V98.462ZM58.3667 92.819C58.7327 92.429 59.1467 92.111 59.6087 91.865C60.0767 91.613 60.6317 91.487 61.2737 91.487C61.7597 91.487 62.2097 91.595 62.6237 91.811C63.0377 92.027 63.3947 92.339 63.6947 92.747C63.9947 93.155 64.2287 93.656 64.3967 94.25C64.5707 94.838 64.6577 95.507 64.6577 96.257C64.6577 96.959 64.5587 97.607 64.3607 98.201C64.1687 98.795 63.8957 99.311 63.5417 99.749C63.1937 100.187 62.7737 100.529 62.2817 100.775C61.7957 101.021 61.2557 101.144 60.6617 101.144C60.1757 101.144 59.7677 101.075 59.4377 100.937C59.1077 100.799 58.8077 100.613 58.5377 100.379V103.961H55.7477V91.667H57.4757C57.8237 91.667 58.0517 91.823 58.1597 92.135L58.3667 92.819ZM71.9063 95.213C71.9063 94.991 71.8763 94.775 71.8163 94.565C71.7623 94.355 71.6693 94.169 71.5373 94.007C71.4113 93.839 71.2433 93.704 71.0333 93.602C70.8233 93.5 70.5683 93.449 70.2683 93.449C69.7403 93.449 69.3263 93.602 69.0263 93.908C68.7263 94.208 68.5283 94.643 68.4323 95.213H71.9063ZM68.3963 96.833C68.4863 97.613 68.7233 98.18 69.1073 98.534C69.4913 98.882 69.9863 99.056 70.5923 99.056C70.9163 99.056 71.1953 99.017 71.4293 98.939C71.6633 98.861 71.8703 98.774 72.0503 98.678C72.2363 98.582 72.4043 98.495 72.5543 98.417C72.7103 98.339 72.8723 98.3 73.0403 98.3C73.2623 98.3 73.4303 98.381 73.5443 98.543L74.3543 99.542C74.0663 99.872 73.7543 100.142 73.4183 100.352C73.0883 100.556 72.7463 100.718 72.3923 100.838C72.0443 100.952 71.6933 101.03 71.3393 101.072C70.9913 101.12 70.6583 101.144 70.3403 101.144C69.6863 101.144 69.0713 101.039 68.4953 100.829C67.9253 100.613 67.4243 100.295 66.9923 99.875C66.5663 99.455 66.2273 98.933 65.9753 98.309C65.7293 97.685 65.6063 96.959 65.6063 96.131C65.6063 95.507 65.7113 94.916 65.9213 94.358C66.1373 93.8 66.4433 93.311 66.8393 92.891C67.2413 92.471 67.7243 92.138 68.2883 91.892C68.8583 91.646 69.5003 91.523 70.2143 91.523C70.8323 91.523 71.3963 91.619 71.9063 91.811C72.4223 92.003 72.8633 92.282 73.2293 92.648C73.6013 93.014 73.8893 93.464 74.0933 93.998C74.3033 94.526 74.4082 95.126 74.4082 95.798C74.4082 96.008 74.3993 96.179 74.3813 96.311C74.3633 96.443 74.3303 96.548 74.2823 96.626C74.2343 96.704 74.1683 96.758 74.0843 96.788C74.0063 96.818 73.9043 96.833 73.7783 96.833H68.3963ZM75.4264 99.587C75.4264 99.371 75.4654 99.17 75.5434 98.984C75.6274 98.798 75.7384 98.636 75.8764 98.498C76.0204 98.36 76.1884 98.252 76.3804 98.174C76.5724 98.09 76.7824 98.048 77.0104 98.048C77.2324 98.048 77.4394 98.09 77.6314 98.174C77.8234 98.252 77.9914 98.36 78.1354 98.498C78.2794 98.636 78.3904 98.798 78.4684 98.984C78.5524 99.17 78.5944 99.371 78.5944 99.587C78.5944 99.803 78.5524 100.007 78.4684 100.199C78.3904 100.385 78.2794 100.547 78.1354 100.685C77.9914 100.823 77.8234 100.931 77.6314 101.009C77.4394 101.087 77.2324 101.126 77.0104 101.126C76.7824 101.126 76.5724 101.087 76.3804 101.009C76.1884 100.931 76.0204 100.823 75.8764 100.685C75.7384 100.547 75.6274 100.385 75.5434 100.199C75.4654 100.007 75.4264 99.803 75.4264 99.587ZM86.042 93.71C85.97 93.824 85.892 93.905 85.808 93.953C85.73 94.001 85.628 94.025 85.502 94.025C85.37 94.025 85.238 93.998 85.106 93.944C84.974 93.884 84.83 93.821 84.674 93.755C84.524 93.689 84.353 93.629 84.161 93.575C83.969 93.515 83.75 93.485 83.504 93.485C83.15 93.485 82.877 93.554 82.685 93.692C82.499 93.824 82.406 94.01 82.406 94.25C82.406 94.424 82.466 94.568 82.586 94.682C82.712 94.796 82.877 94.898 83.081 94.988C83.285 95.072 83.516 95.153 83.774 95.231C84.032 95.309 84.296 95.396 84.566 95.492C84.836 95.588 85.1 95.702 85.358 95.834C85.616 95.96 85.847 96.119 86.051 96.311C86.255 96.497 86.417 96.725 86.537 96.995C86.663 97.265 86.726 97.589 86.726 97.967C86.726 98.429 86.642 98.855 86.474 99.245C86.306 99.635 86.054 99.971 85.718 100.253C85.388 100.535 84.977 100.754 84.485 100.91C83.999 101.066 83.438 101.144 82.802 101.144C82.484 101.144 82.166 101.114 81.848 101.054C81.53 100.994 81.221 100.913 80.921 100.811C80.627 100.709 80.354 100.589 80.102 100.451C79.85 100.307 79.634 100.154 79.454 99.992L80.102 98.966C80.174 98.846 80.264 98.753 80.372 98.687C80.486 98.615 80.63 98.579 80.804 98.579C80.966 98.579 81.11 98.615 81.236 98.687C81.368 98.759 81.509 98.837 81.659 98.921C81.809 99.005 81.983 99.083 82.181 99.155C82.385 99.227 82.64 99.263 82.946 99.263C83.162 99.263 83.345 99.242 83.495 99.2C83.645 99.152 83.765 99.089 83.855 99.011C83.945 98.933 84.011 98.846 84.053 98.75C84.095 98.654 84.116 98.555 84.116 98.453C84.116 98.267 84.053 98.114 83.927 97.994C83.801 97.874 83.636 97.772 83.432 97.688C83.228 97.598 82.994 97.517 82.73 97.445C82.472 97.367 82.208 97.28 81.938 97.184C81.668 97.088 81.401 96.974 81.137 96.842C80.879 96.704 80.648 96.533 80.444 96.329C80.24 96.119 80.075 95.864 79.949 95.564C79.823 95.264 79.76 94.901 79.76 94.475C79.76 94.079 79.835 93.704 79.985 93.35C80.141 92.99 80.372 92.675 80.678 92.405C80.984 92.135 81.368 91.922 81.83 91.766C82.292 91.604 82.832 91.523 83.45 91.523C83.786 91.523 84.11 91.553 84.422 91.613C84.74 91.673 85.037 91.757 85.313 91.865C85.589 91.973 85.841 92.102 86.069 92.252C86.297 92.396 86.498 92.555 86.672 92.729L86.042 93.71ZM92.4286 91.523C93.1366 91.523 93.7816 91.634 94.3636 91.856C94.9456 92.078 95.4436 92.396 95.8576 92.81C96.2776 93.224 96.6016 93.728 96.8296 94.322C97.0636 94.91 97.1806 95.573 97.1806 96.311C97.1806 97.055 97.0636 97.727 96.8296 98.327C96.6016 98.921 96.2776 99.428 95.8576 99.848C95.4436 100.262 94.9456 100.583 94.3636 100.811C93.7816 101.033 93.1366 101.144 92.4286 101.144C91.7146 101.144 91.0636 101.033 90.4756 100.811C89.8936 100.583 89.3896 100.262 88.9636 99.848C88.5436 99.428 88.2166 98.921 87.9826 98.327C87.7546 97.727 87.6406 97.055 87.6406 96.311C87.6406 95.573 87.7546 94.91 87.9826 94.322C88.2166 93.728 88.5436 93.224 88.9636 92.81C89.3896 92.396 89.8936 92.078 90.4756 91.856C91.0636 91.634 91.7146 91.523 92.4286 91.523ZM92.4286 99.074C93.0706 99.074 93.5416 98.849 93.8416 98.399C94.1476 97.943 94.3006 97.253 94.3006 96.329C94.3006 95.405 94.1476 94.718 93.8416 94.268C93.5416 93.818 93.0706 93.593 92.4286 93.593C91.7686 93.593 91.2856 93.818 90.9796 94.268C90.6736 94.718 90.5206 95.405 90.5206 96.329C90.5206 97.253 90.6736 97.943 90.9796 98.399C91.2856 98.849 91.7686 99.074 92.4286 99.074Z" fill="white"/>
<defs>
<filter id="filter0_d_428_4" x="0.5" y="18.5" width="121" height="121" filterUnits="userSpaceOnUse" color-interpolation-filters="sRGB">
<feFlood flood-opacity="0" result="BackgroundImageFix"/>
<feColorMatrix in="SourceAlpha" type="matrix" values="0 0 0 0 0 0 0 0 0 0 0 0 0 0 0 0 0 0 127 0" result="hardAlpha"/>
<feMorphology radius="0.5" operator="dilate" in="SourceAlpha" result="effect1_dropShadow_428_4"/>
<feOffset/>
<feComposite in2="hardAlpha" operator="out"/>
<feColorMatrix type="matrix" values="0 0 0 0 1 0 0 0 0 1 0 0 0 0 1 0 0 0 0.21 0"/>
<feBlend mode="normal" in2="BackgroundImageFix" result="effect1_dropShadow_428_4"/>
<feBlend mode="normal" in="SourceGraphic" in2="effect1_dropShadow_428_4" result="shape"/>
</filter>
<filter id="filter1_d_428_4" x="35" y="0" width="52" height="52" filterUnits="userSpaceOnUse" color-interpolation-filters="sRGB">
<feFlood flood-opacity="0" result="BackgroundImageFix"/>
<feColorMatrix in="SourceAlpha" type="matrix" values="0 0 0 0 0 0 0 0 0 0 0 0 0 0 0 0 0 0 127 0" result="hardAlpha"/>
<feOffset dy="4"/>
<feGaussianBlur stdDeviation="2"/>
<feColorMatrix type="matrix" values="0 0 0 0 0 0 0 0 0 0 0 0 0 0 0 0 0 0 0.25 0"/>
<feBlend mode="normal" in2="BackgroundImageFix" result="effect1_dropShadow_428_4"/>
<feBlend mode="normal" in="SourceGraphic" in2="effect1_dropShadow_428_4" result="shape"/>
</filter>
<linearGradient id="paint0_linear_428_4" x1="61" y1="19" x2="61" y2="139" gradientUnits="userSpaceOnUse">
<stop stop-color="#1820FF" stop-opacity="0.19"/>
<stop offset="1" stop-color="#18204F" stop-opacity="0.74"/>
</linearGradient>
<linearGradient id="paint1_linear_428_4" x1="53.6094" y1="26.1249" x2="53.6094" y2="9.62491" gradientUnits="userSpaceOnUse">
<stop stop-color="#003CB4"/>
<stop offset="1" stop-color="#6498FF"/>
</linearGradient>
<linearGradient id="paint2_linear_428_4" x1="77.0703" y1="35.4062" x2="60.4707" y2="25.3967" gradientUnits="userSpaceOnUse">
<stop stop-color="#4D29C0"/>
<stop offset="1" stop-color="#9D80FF"/>
</linearGradient>
</defs>
</svg>
