<svg width="42" height="42" viewBox="0 0 42 42" fill="none" xmlns="http://www.w3.org/2000/svg">
<path fill-rule="evenodd" clip-rule="evenodd" d="M38.1466 38.0834H31.0536V26.9861C31.0536 24.3382 31.0092 20.9352 27.3687 20.9352C23.6787 20.9352 23.115 23.8188 23.115 26.7948V38.0834H16.0288V15.2601H22.828V18.3812H22.9271C23.8718 16.5875 26.1866 14.6946 29.6374 14.6946C36.8192 14.6946 38.1449 19.4199 38.1449 25.5665V38.0834H38.1466ZM8.03212 12.1441C7.49156 12.1445 6.95621 12.0384 6.45671 11.8317C5.9572 11.6251 5.50335 11.322 5.12111 10.9397C4.73888 10.5575 4.43576 10.1036 4.2291 9.60412C4.02244 9.10462 3.9163 8.56927 3.91675 8.02871C3.91675 7.21525 4.15793 6.42005 4.60979 5.74363C5.06166 5.06722 5.70392 4.53996 6.4554 4.2285C7.20687 3.91705 8.03382 3.83538 8.8317 3.99383C9.62958 4.15228 10.3626 4.54373 10.938 5.1187C11.5135 5.69366 11.9055 6.42633 12.0646 7.22408C12.2237 8.02183 12.1428 8.84884 11.8319 9.60057C11.5211 10.3523 10.9944 10.995 10.3183 11.4474C9.64229 11.8999 8.84729 12.1417 8.03383 12.1424L8.03212 12.1441ZM11.5803 38.0834H4.4805V15.2601H11.5803V38.0834Z" fill="white"/>
</svg>
