<svg width="557" height="47" viewBox="0 0 557 47" fill="none" xmlns="http://www.w3.org/2000/svg">
<path fill-rule="evenodd" clip-rule="evenodd" d="M22 44.5C34.1503 44.5 44 34.6503 44 22.5C44 10.3497 34.1503 0.5 22 0.5C9.84974 0.5 0 10.3497 0 22.5C0 34.6503 9.84974 44.5 22 44.5Z" fill="black"/>
<mask id="mask0_48_214" style="mask-type:alpha" maskUnits="userSpaceOnUse" x="13" y="14" width="18" height="18">
<path d="M14.0231 14.0723C13.84 14.0723 13.6723 14.1495 13.5585 14.276C13.456 14.3831 13.3923 14.5288 13.3877 14.6873V14.7294C13.3897 14.8046 13.4045 14.8752 13.4309 14.94C13.432 14.9457 13.4344 14.9503 13.4365 14.9561C13.4571 15.005 13.4832 15.0504 13.5162 15.0927C13.5275 15.1088 13.5403 15.1236 13.5539 15.1371C13.5561 15.1406 13.5595 15.1439 13.563 15.1474L15.5882 17.5519L16.3195 18.4198L18.5089 21.0181L19.2401 21.8848L21.2004 24.212L21.9303 25.0786V31.1577C21.9704 31.1577 22.0092 31.1566 22.0478 31.1533C22.4316 31.1261 22.7779 30.9619 23.0387 30.7102C23.04 30.7102 23.04 30.7102 23.04 30.7089L23.2552 30.4527L28.5131 24.212L30.3128 22.075C30.3219 22.066 30.3298 22.0556 30.3379 22.0455C30.3765 21.9976 30.4072 21.9439 30.4299 21.8848C30.4585 21.8142 30.4733 21.7368 30.4733 21.6546V14.7078C30.4733 14.5403 30.4083 14.3864 30.3014 14.2749C30.1863 14.1495 30.021 14.0723 29.8365 14.0723H14.0231Z" fill="white"/>
</mask>
<g mask="url(#mask0_48_214)">
<path fill-rule="evenodd" clip-rule="evenodd" d="M14.0231 14.0723C13.84 14.0723 13.6723 14.1495 13.5585 14.276C13.456 14.3831 13.3923 14.5288 13.3877 14.6873V14.7294C13.3897 14.8046 13.4045 14.8752 13.4309 14.94C13.432 14.9457 13.4344 14.9503 13.4365 14.9561C13.4571 15.005 13.4832 15.0504 13.5162 15.0927C13.5275 15.1088 13.5403 15.1236 13.5539 15.1371C13.5561 15.1406 13.5595 15.1439 13.563 15.1474L15.5882 17.5519L16.3195 18.4198L18.5089 21.0181L19.2401 21.8848L21.2004 24.212L21.9303 25.0786V31.1577C21.9704 31.1577 22.0092 31.1566 22.0478 31.1533C22.4316 31.1261 22.7779 30.9619 23.0387 30.7102C23.04 30.7102 23.04 30.7102 23.04 30.7089L23.2552 30.4527L28.5131 24.212L30.3128 22.075C30.3219 22.066 30.3298 22.0556 30.3379 22.0455C30.3765 21.9976 30.4072 21.9439 30.4299 21.8848C30.4585 21.8142 30.4733 21.7368 30.4733 21.6546V14.7078C30.4733 14.5403 30.4083 14.3864 30.3014 14.2749C30.1863 14.1495 30.021 14.0723 29.8365 14.0723H14.0231Z" fill="url(#paint0_linear_48_214)"/>
<path fill-rule="evenodd" clip-rule="evenodd" d="M21.9303 28.5587V31.1579C21.4997 31.1579 21.1091 30.987 20.8219 30.7102C20.8208 30.7102 20.8208 30.7102 20.8208 30.7092L20.6056 30.4529L15.3477 24.2122L13.5583 22.0877C13.5537 22.0855 13.5504 22.0809 13.548 22.0763L13.5195 22.0434C13.5173 22.041 13.516 22.0388 13.514 22.0364C13.4796 21.9898 13.4501 21.9396 13.4307 21.8849C13.4044 21.8201 13.3897 21.7495 13.3875 21.6766V21.6334C13.3875 21.6197 13.3886 21.6058 13.391 21.5922C13.4033 21.4489 13.4648 21.321 13.5583 21.2209C13.6734 21.0968 13.8396 21.0183 14.0228 21.0183H15.5756L16.3057 21.8849L18.266 24.2122L21.4801 28.0268L21.9292 28.5599L21.9303 28.5587Z" fill="#FCD1CA"/>
<path fill-rule="evenodd" clip-rule="evenodd" d="M21.9303 25.0793V28.5584L21.9292 28.5595L21.4807 28.0266L18.2665 24.2123L16.3059 21.8855L15.5756 21.0183L13.5465 18.6113C13.538 18.6018 13.5295 18.5911 13.521 18.5802C13.4837 18.5324 13.4527 18.479 13.4301 18.4201C13.4046 18.3551 13.3897 18.2845 13.3875 18.2099V18.1671C13.3917 18.008 13.4558 17.8649 13.5583 17.7561C13.6726 17.6299 13.839 17.552 14.0228 17.552H15.5884L16.3198 18.4201L18.509 21.0183L19.2393 21.8855L21.2 24.2123L21.9303 25.0793Z" fill="#FF9D8D"/>
</g>
<mask id="mask1_48_214" style="mask-type:alpha" maskUnits="userSpaceOnUse" x="9" y="10" width="26" height="25">
<path d="M9.625 34.9204H34.2355V10.3098H9.625V34.9204Z" fill="white"/>
</mask>
<g mask="url(#mask1_48_214)">
</g>
<path d="M107 47C119.15 47 129 37.1503 129 25C129 12.8497 119.15 3 107 3C94.8497 3 85 12.8497 85 25C85 37.1503 94.8497 47 107 47Z" fill="#4353FF"/>
<path d="M113.462 22.3875L111.469 28.6712C111.469 28.19 110.094 17.7675 110.094 17.7675C106.931 17.7675 105.254 20.0087 104.374 22.3875L101.94 28.685C101.94 28.2312 101.596 22.4425 101.596 22.4425C101.479 21.1893 100.906 20.0227 99.9861 19.1637C99.0662 18.3046 97.8632 17.8127 96.605 17.7812L99.19 33.5662C102.49 33.5662 104.277 31.325 105.199 28.9462L107.261 23.5837C107.261 23.8037 108.636 33.5662 108.636 33.5662C109.986 33.5645 111.299 33.1331 112.387 32.3345C113.475 31.536 114.28 30.4118 114.686 29.125L119.361 17.7675C116.061 17.7675 114.329 20.0087 113.449 22.3875H113.462Z" fill="white"/>
<path fill-rule="evenodd" clip-rule="evenodd" d="M191 46C203.15 46 213 36.1503 213 24C213 11.8497 203.15 2 191 2C178.85 2 169 11.8497 169 24C169 36.1503 178.85 46 191 46Z" fill="black"/>
<path d="M182.75 11.625H199.25V19.875H191L182.75 11.625ZM182.75 19.875H191L199.25 28.125H182.75V19.875ZM182.75 28.125H191V36.375L182.75 28.125Z" fill="white"/>
<path fill-rule="evenodd" clip-rule="evenodd" d="M449 47C461.15 47 471 37.1503 471 25C471 12.8497 461.15 3 449 3C436.85 3 427 12.8497 427 25C427 37.1503 436.85 47 449 47Z" fill="black"/>
<path d="M442.025 14.7374L449 14L455.975 14.7374L461.375 21.9864L449 36.397L436.625 21.9864L442.025 14.7374Z" fill="#FDB300"/>
<path d="M441.637 21.9864L449 36.3969L436.625 21.9864H441.637Z" fill="#EA6C00"/>
<path d="M456.363 21.9864L449 36.3969L461.375 21.9864H456.363Z" fill="#EA6C00"/>
<path d="M441.638 21.9864H456.363L449 36.3969L441.638 21.9864Z" fill="#FDAD00"/>
<path d="M449 14L442.025 14.7374L441.638 21.9864L449 14Z" fill="#FDD231"/>
<path d="M449.001 14L455.976 14.7374L456.364 21.9864L449.001 14Z" fill="#FDD231"/>
<path d="M461.375 21.9866L455.975 14.7375L456.363 21.9866H461.375Z" fill="#FDAD00"/>
<path d="M436.625 21.9866L442.025 14.7375L441.637 21.9866H436.625Z" fill="#FDAD00"/>
<path d="M449 14L441.638 21.9864H456.363L449 14Z" fill="#FEEEB7"/>
<path fill-rule="evenodd" clip-rule="evenodd" d="M362 46C374.15 46 384 36.1503 384 24C384 11.8497 374.15 2 362 2C349.85 2 340 11.8497 340 24C340 36.1503 349.85 46 362 46Z" fill="black"/>
<path d="M357.96 36.0001C360.146 36.0001 361.92 34.2081 361.92 32.0001V28.0001H357.96C355.774 28.0001 354 29.7921 354 32.0001C354 34.2081 355.774 36.0001 357.96 36.0001Z" fill="#0ACF83"/>
<path d="M354 23.9999C354 21.7919 355.774 19.9999 357.96 19.9999H361.92V27.9999H357.96C355.774 27.9999 354 26.2079 354 23.9999Z" fill="#A259FF"/>
<path d="M354 16C354 13.792 355.774 12 357.96 12H361.92V20H357.96C355.774 20 354 18.208 354 16Z" fill="#F24E1E"/>
<path d="M361.92 12H365.88C368.066 12 369.84 13.792 369.84 16C369.84 18.208 368.066 20 365.88 20H361.92V12Z" fill="#FF7262"/>
<path d="M369.84 23.9999C369.84 26.2079 368.066 27.9999 365.88 27.9999C363.694 27.9999 361.92 26.2079 361.92 23.9999C361.92 21.7919 363.694 19.9999 365.88 19.9999C368.066 19.9999 369.84 21.7919 369.84 23.9999Z" fill="#1ABCFE"/>
<path fill-rule="evenodd" clip-rule="evenodd" d="M535 47C547.15 47 557 37.1503 557 25C557 12.8497 547.15 3 535 3C522.85 3 513 12.8497 513 25C513 37.1503 522.85 47 535 47Z" fill="#18204D"/>
<path d="M547.375 25.023C547.375 23.3834 545.322 21.8297 542.174 20.8661C542.9 17.6575 542.577 15.1048 541.155 14.2876C540.827 14.0959 540.443 14.005 540.025 14.005V15.13C540.257 15.13 540.443 15.1754 540.6 15.2612C541.286 15.6547 541.583 17.153 541.351 19.0802C541.296 19.5543 541.205 20.0539 541.094 20.5633C540.105 20.3212 539.026 20.1346 537.891 20.0134C537.21 19.0802 536.503 18.2327 535.792 17.491C537.437 15.9624 538.98 15.125 540.03 15.125V14C538.642 14 536.826 14.9888 534.99 16.704C533.154 14.9989 531.337 14.0202 529.95 14.0202V15.1452C530.994 15.1452 532.543 15.9776 534.188 17.4961C533.481 18.2376 532.775 19.0802 532.104 20.0134C530.964 20.1346 529.885 20.3212 528.896 20.5684C528.78 20.0639 528.694 19.5745 528.633 19.1054C528.396 17.1783 528.689 15.6799 529.37 15.2814C529.521 15.1906 529.718 15.1502 529.95 15.1502V14.0252C529.526 14.0252 529.143 14.116 528.81 14.3077C527.392 15.125 527.074 17.6726 527.806 20.871C524.668 21.8397 522.625 23.3885 522.625 25.023C522.625 26.6625 524.678 28.2164 527.826 29.18C527.1 32.3884 527.423 34.9411 528.845 35.7584C529.173 35.9501 529.557 36.041 529.98 36.041C531.368 36.041 533.184 35.0521 535.02 33.3369C536.857 35.042 538.673 36.0208 540.06 36.0208C540.484 36.0208 540.867 35.9299 541.2 35.7382C542.618 34.9209 542.936 32.3733 542.204 29.1749C545.332 28.2113 547.375 26.6576 547.375 25.023ZM540.807 21.6581C540.62 22.3089 540.388 22.9799 540.126 23.6509C539.919 23.2472 539.702 22.8436 539.465 22.44C539.233 22.0365 538.985 21.6429 538.738 21.2596C539.455 21.3655 540.146 21.4966 540.807 21.6581ZM538.496 27.0309C538.103 27.7119 537.699 28.3576 537.28 28.9579C536.529 29.0235 535.767 29.0589 535 29.0589C534.238 29.0589 533.476 29.0235 532.73 28.963C532.311 28.3627 531.902 27.722 531.509 27.046C531.126 26.385 530.778 25.7142 530.46 25.0381C530.772 24.3621 531.126 23.6861 531.504 23.0252C531.897 22.3442 532.301 21.6985 532.72 21.098C533.471 21.0326 534.233 20.9972 535 20.9972C535.762 20.9972 536.523 21.0326 537.27 21.0931C537.689 21.6934 538.098 22.334 538.491 23.0101C538.874 23.6709 539.222 24.3419 539.54 25.0179C539.222 25.694 538.874 26.3699 538.496 27.0309ZM540.126 26.375C540.398 27.051 540.63 27.727 540.822 28.3829C540.161 28.5443 539.465 28.6805 538.743 28.7865C538.991 28.398 539.238 27.9994 539.47 27.5908C539.702 27.1872 539.919 26.7786 540.126 26.375ZM535.01 31.7579C534.541 31.2736 534.072 30.7338 533.608 30.1435C534.062 30.1637 534.526 30.1788 534.995 30.1788C535.469 30.1788 535.938 30.1688 536.397 30.1435C535.943 30.7338 535.474 31.2736 535.01 31.7579ZM531.257 28.7865C530.54 28.6805 529.849 28.5493 529.188 28.3879C529.375 27.7371 529.607 27.0661 529.869 26.3952C530.076 26.7988 530.293 27.2023 530.53 27.6059C530.767 28.0095 531.009 28.403 531.257 28.7865ZM534.985 18.2881C535.454 18.7725 535.923 19.3122 536.387 19.9025C535.933 19.8823 535.469 19.8671 535 19.8671C534.526 19.8671 534.057 19.8773 533.597 19.9025C534.052 19.3122 534.521 18.7725 534.985 18.2881ZM531.252 21.2596C531.005 21.648 530.757 22.0465 530.525 22.4552C530.293 22.8587 530.076 23.2623 529.869 23.666C529.597 22.9899 529.365 22.3139 529.173 21.6581C529.834 21.5017 530.53 21.3655 531.252 21.2596ZM526.686 27.5757C524.9 26.8139 523.745 25.815 523.745 25.023C523.745 24.231 524.9 23.2271 526.686 22.4703C527.12 22.2837 527.594 22.1172 528.083 21.9607C528.371 22.9496 528.749 23.9787 529.219 25.0331C528.754 26.0824 528.381 27.1065 528.099 28.0903C527.599 27.9338 527.125 27.7624 526.686 27.5757ZM529.4 34.7848C528.714 34.3913 528.417 32.8929 528.649 30.9659C528.704 30.4916 528.795 29.9922 528.906 29.4826C529.895 29.7248 530.974 29.9115 532.109 30.0325C532.79 30.9659 533.497 31.8134 534.208 32.5549C532.563 34.0835 531.02 34.9209 529.97 34.9209C529.743 34.916 529.552 34.8706 529.4 34.7848ZM541.367 30.9406C541.604 32.8678 541.311 34.3661 540.63 34.7646C540.479 34.8553 540.282 34.8957 540.05 34.8957C539.006 34.8957 537.457 34.0633 535.812 32.5449C536.519 31.8032 537.225 30.9608 537.896 30.0274C539.036 29.9064 540.115 29.7197 541.104 29.4726C541.22 29.982 541.311 30.4714 541.367 30.9406ZM543.309 27.5757C542.875 27.7624 542.401 27.9288 541.911 28.0852C541.624 27.0965 541.246 26.0673 540.776 25.0129C541.24 23.9635 541.614 22.9394 541.896 21.9558C542.396 22.1121 542.87 22.2837 543.314 22.4703C545.1 23.232 546.255 24.231 546.255 25.023C546.25 25.815 545.095 26.819 543.309 27.5757Z" fill="#61DAFB"/>
<path d="M534.995 27.3286C536.268 27.3286 537.3 26.2964 537.3 25.0231C537.3 23.7499 536.268 22.7177 534.995 22.7177C533.721 22.7177 532.689 23.7499 532.689 25.0231C532.689 26.2964 533.721 27.3286 534.995 27.3286Z" fill="#61DAFB"/>
<g clip-path="url(#clip0_48_214)">
<path fill-rule="evenodd" clip-rule="evenodd" d="M276 47C288.15 47 298 37.1503 298 25C298 12.8497 288.15 3 276 3C263.85 3 254 12.8497 254 25C254 37.1503 263.85 47 276 47Z" fill="#18204D"/>
<g filter="url(#filter0_d_48_214)">
<path d="M281.203 33.2188C278.466 34.8226 274.703 34.9874 270.918 33.3414C267.852 32.0184 265.309 29.7025 263.679 27.0565C264.461 27.718 265.374 28.2474 266.353 28.7103C270.262 30.5692 274.171 30.4419 276.921 28.715C276.92 28.7132 276.918 28.712 276.917 28.7103C273.004 25.6669 269.678 21.6973 267.201 18.4558C266.679 17.9265 266.287 17.2649 265.896 16.6695C268.896 19.4481 273.657 22.9543 275.352 23.9472C271.766 20.1096 268.57 15.3465 268.7 15.4785C274.374 21.3006 279.656 24.6087 279.656 24.6087C279.831 24.7086 279.966 24.7919 280.074 24.8662C280.189 24.5712 280.289 24.2648 280.373 23.9472C281.286 20.573 280.243 16.7355 277.961 13.5601C283.243 16.8018 286.373 22.8883 285.069 27.9828C285.035 28.1202 284.998 28.2558 284.958 28.3891C284.973 28.4075 284.988 28.4266 285.003 28.4462C287.612 31.7543 286.894 35.2605 286.568 34.599C285.154 31.79 282.534 32.649 281.203 33.2189V33.2188Z" fill="#00CFFD"/>
</g>
</g>
<defs>
<filter id="filter0_d_48_214" x="195.849" y="-54.2701" width="158.892" height="156.78" filterUnits="userSpaceOnUse" color-interpolation-filters="sRGB">
<feFlood flood-opacity="0" result="BackgroundImageFix"/>
<feColorMatrix in="SourceAlpha" type="matrix" values="0 0 0 0 0 0 0 0 0 0 0 0 0 0 0 0 0 0 127 0" result="hardAlpha"/>
<feOffset/>
<feGaussianBlur stdDeviation="33.9151"/>
<feColorMatrix type="matrix" values="0 0 0 0 0.250017 0 0 0 0 0.215353 0 0 0 0 0.847968 0 0 0 0.610768 0"/>
<feBlend mode="normal" in2="BackgroundImageFix" result="effect1_dropShadow_48_214"/>
<feBlend mode="normal" in="SourceGraphic" in2="effect1_dropShadow_48_214" result="shape"/>
</filter>
<linearGradient id="paint0_linear_48_214" x1="28.742" y1="12.0496" x2="15.5854" y2="25.2065" gradientUnits="userSpaceOnUse">
<stop stop-color="#FF6660"/>
<stop offset="1" stop-color="#FB4444"/>
</linearGradient>
<clipPath id="clip0_48_214">
<rect width="44" height="44" fill="white" transform="translate(254 3)"/>
</clipPath>
</defs>
</svg>
