<svg width="44" height="44" viewBox="0 0 44 44" fill="none" xmlns="http://www.w3.org/2000/svg">
<path fill-rule="evenodd" clip-rule="evenodd" d="M22 44C34.1503 44 44 34.1503 44 22C44 9.84973 34.1503 0 22 0C9.84973 0 0 9.84973 0 22C0 34.1503 9.84973 44 22 44Z" fill="#18204D"/>
<path d="M34.375 22.023C34.375 20.3834 32.3217 18.8297 29.1738 17.8661C29.9002 14.6575 29.5774 12.1048 28.1548 11.2876C27.8268 11.0959 27.4434 11.005 27.0247 11.005V12.13C27.2568 12.13 27.4433 12.1754 27.5998 12.2612C28.2858 12.6547 28.5835 14.153 28.3514 16.0802C28.296 16.5543 28.2051 17.0539 28.0941 17.5633C27.1054 17.3212 26.0257 17.1346 24.8907 17.0134C24.2096 16.0802 23.5034 15.2327 22.792 14.491C24.4366 12.9624 25.9804 12.125 27.0298 12.125V11C25.6424 11 23.8263 11.9888 21.99 13.704C20.1536 11.9989 18.3374 11.0202 16.9502 11.0202V12.1452C17.9944 12.1452 19.5431 12.9776 21.1878 14.4961C20.4815 15.2376 19.7753 16.0802 19.1042 17.0134C17.9641 17.1346 16.8846 17.3212 15.8957 17.5684C15.7798 17.0639 15.694 16.5745 15.6335 16.1054C15.3963 14.1783 15.6889 12.6799 16.3699 12.2814C16.5213 12.1906 16.7181 12.1502 16.9502 12.1502V11.0252C16.5264 11.0252 16.1429 11.116 15.81 11.3077C14.3924 12.125 14.0745 14.6726 14.806 17.871C11.6682 18.8397 9.625 20.3885 9.625 22.023C9.625 23.6625 11.6782 25.2164 14.8262 26.18C14.0998 29.3884 14.4226 31.9411 15.8452 32.7584C16.1732 32.9501 16.5566 33.041 16.9804 33.041C18.3677 33.041 20.1839 32.0521 22.0202 30.3369C23.8565 32.042 25.6726 33.0208 27.06 33.0208C27.4838 33.0208 27.8671 32.9299 28.2001 32.7382C29.6178 31.9209 29.9355 29.3733 29.204 26.1749C32.3319 25.2113 34.375 23.6576 34.375 22.023ZM27.8066 18.6581C27.6199 19.3089 27.3879 19.9799 27.1256 20.6509C26.9188 20.2472 26.7018 19.8436 26.4646 19.44C26.2327 19.0365 25.9854 18.6429 25.7382 18.2596C26.4546 18.3655 27.1458 18.4966 27.8066 18.6581ZM25.4961 24.0309C25.1026 24.7119 24.699 25.3576 24.2803 25.9579C23.5286 26.0235 22.7668 26.0589 22 26.0589C21.2382 26.0589 20.4765 26.0235 19.7299 25.963C19.3111 25.3627 18.9024 24.722 18.509 24.046C18.1255 23.385 17.7775 22.7142 17.4596 22.0381C17.7724 21.3621 18.1255 20.6861 18.5039 20.0252C18.8975 19.3442 19.301 18.6985 19.7197 18.098C20.4714 18.0326 21.2332 17.9972 22 17.9972C22.7618 17.9972 23.5235 18.0326 24.2701 18.0931C24.6889 18.6934 25.0976 19.334 25.491 20.0101C25.8745 20.6709 26.2225 21.3419 26.5404 22.0179C26.2225 22.694 25.8745 23.3699 25.4961 24.0309ZM27.1256 23.375C27.398 24.051 27.6301 24.727 27.8217 25.3829C27.1609 25.5443 26.4646 25.6805 25.7433 25.7865C25.9905 25.398 26.2376 24.9994 26.4697 24.5908C26.7018 24.1872 26.9188 23.7786 27.1256 23.375ZM22.01 28.7579C21.5409 28.2736 21.0717 27.7338 20.6077 27.1435C21.0617 27.1637 21.5258 27.1788 21.9949 27.1788C22.4691 27.1788 22.9383 27.1688 23.3974 27.1435C22.9434 27.7338 22.4742 28.2736 22.01 28.7579ZM18.2567 25.7865C17.5403 25.6805 16.8493 25.5493 16.1883 25.3879C16.375 24.7371 16.6071 24.0661 16.8695 23.3952C17.0763 23.7988 17.2931 24.2023 17.5303 24.6059C17.7673 25.0095 18.0095 25.403 18.2567 25.7865ZM21.9849 15.2881C22.454 15.7725 22.9232 16.3122 23.3874 16.9025C22.9334 16.8823 22.4691 16.8671 22 16.8671C21.5258 16.8671 21.0566 16.8773 20.5975 16.9025C21.0515 16.3122 21.5207 15.7725 21.9849 15.2881ZM18.2517 18.2596C18.0045 18.648 17.7573 19.0465 17.5252 19.4552C17.2931 19.8587 17.0763 20.2623 16.8695 20.666C16.5969 19.9899 16.365 19.3139 16.1732 18.6581C16.8341 18.5017 17.5303 18.3655 18.2517 18.2596ZM13.6861 24.5757C11.9002 23.8139 10.745 22.815 10.745 22.023C10.745 21.231 11.9002 20.2271 13.6861 19.4703C14.12 19.2837 14.5941 19.1172 15.0835 18.9607C15.3711 19.9496 15.7494 20.9787 16.2187 22.0331C15.7545 23.0824 15.3812 24.1065 15.0986 25.0903C14.5992 24.9338 14.125 24.7624 13.6861 24.5757ZM16.4002 31.7848C15.7142 31.3913 15.4165 29.8929 15.6486 27.9659C15.704 27.4916 15.7949 26.9922 15.9059 26.4826C16.8946 26.7248 17.9743 26.9115 19.1093 27.0325C19.7904 27.9659 20.4966 28.8134 21.208 29.5549C19.5634 31.0835 18.0197 31.9209 16.9703 31.9209C16.7432 31.916 16.5516 31.8706 16.4002 31.7848ZM28.3665 27.9406C28.6037 29.8678 28.3111 31.3661 27.6301 31.7646C27.4787 31.8553 27.2819 31.8957 27.0498 31.8957C26.0056 31.8957 24.4569 31.0633 22.8122 29.5449C23.5185 28.8032 24.2248 27.9608 24.8958 27.0274C26.0359 26.9064 27.1154 26.7197 28.1043 26.4726C28.2202 26.982 28.3111 27.4714 28.3665 27.9406ZM30.3089 24.5757C29.875 24.7624 29.4008 24.9288 28.9114 25.0852C28.6239 24.0965 28.2455 23.0673 27.7764 22.0129C28.2404 20.9635 28.6137 19.9394 28.8963 18.9558C29.3957 19.1121 29.8699 19.2837 30.3139 19.4703C32.0998 20.232 33.2551 21.231 33.2551 22.023C33.25 22.815 32.0947 23.819 30.3089 24.5757Z" fill="#61DAFB"/>
<path d="M21.9947 24.3286C23.2679 24.3286 24.3002 23.2964 24.3002 22.0231C24.3002 20.7499 23.2679 19.7177 21.9947 19.7177C20.7213 19.7177 19.6891 20.7499 19.6891 22.0231C19.6891 23.2964 20.7213 24.3286 21.9947 24.3286Z" fill="#61DAFB"/>
</svg>
