<svg width="44" height="44" viewBox="0 0 44 44" fill="none" xmlns="http://www.w3.org/2000/svg">
<path fill-rule="evenodd" clip-rule="evenodd" d="M22 44C34.1503 44 44 34.1503 44 22C44 9.84973 34.1503 0 22 0C9.84973 0 0 9.84973 0 22C0 34.1503 9.84973 44 22 44Z" fill="black"/>
<path d="M15.025 11.7374L22 11L28.975 11.7374L34.375 18.9864L22 33.397L9.625 18.9864L15.025 11.7374Z" fill="#FDB300"/>
<path d="M14.6374 18.9864L22 33.3969L9.625 18.9864H14.6374Z" fill="#EA6C00"/>
<path d="M29.3626 18.9864L22 33.3969L34.375 18.9864H29.3626Z" fill="#EA6C00"/>
<path d="M14.6376 18.9864H29.3626L22.0001 33.3969L14.6376 18.9864Z" fill="#FDAD00"/>
<path d="M22.0001 11L15.025 11.7374L14.6376 18.9864L22.0001 11Z" fill="#FDD231"/>
<path d="M22.0012 11L28.9763 11.7374L29.3638 18.9864L22.0012 11Z" fill="#FDD231"/>
<path d="M34.375 18.9866L28.975 11.7375L29.3626 18.9866H34.375Z" fill="#FDAD00"/>
<path d="M9.625 18.9866L15.025 11.7375L14.6374 18.9866H9.625Z" fill="#FDAD00"/>
<path d="M22.0001 11L14.6376 18.9864H29.3626L22.0001 11Z" fill="#FEEEB7"/>
</svg>
