<svg width="43" height="43" viewBox="0 0 43 43" fill="none" xmlns="http://www.w3.org/2000/svg">
<path d="M21.5 1.5C10.454 1.5 1.5 10.454 1.5 21.5C1.5 32.546 10.454 41.5 21.5 41.5C32.546 41.5 41.5 32.546 41.5 21.5C41.5 10.454 32.546 1.5 21.5 1.5ZM21.5 4.398C25.857 4.398 29.834 6.028 32.854 8.71C30.635 11.637 27.264 13.586 23.886 14.905C21.9737 11.4223 19.8306 8.07153 17.471 4.875C18.7907 4.5569 20.1435 4.39678 21.501 4.398H21.5ZM14.224 6.018C16.454 9.354 18.614 12.447 20.587 15.948C15.597 17.241 9.958 18.017 4.749 18.03C5.847 12.702 9.426 8.278 14.224 6.019V6.018ZM34.751 10.688C37.2223 13.708 38.5817 17.4848 38.602 21.387C34.646 20.607 30.712 20.403 26.706 20.807C26.256 19.684 25.71 18.617 25.187 17.467C28.64 16.074 32.332 13.69 34.751 10.687V10.688ZM21.976 18.594C22.404 19.504 22.9 20.47 23.366 21.457C17.796 23.913 11.871 27.195 8.796 32.949C5.84401 29.6823 4.2708 25.3999 4.406 20.999C10.371 20.971 16.226 20.225 21.976 18.594ZM31.014 23.257C33.5028 23.2575 35.9813 23.5768 38.389 24.207C38.0178 26.5232 37.1739 28.7383 35.91 30.7145C34.6461 32.6907 32.989 34.3856 31.042 35.694C30.124 31.519 29.249 27.524 27.702 23.496C28.7984 23.3362 29.905 23.256 31.013 23.256L31.014 23.257ZM38.478 23.567C38.466 23.665 38.455 23.761 38.441 23.857C38.455 23.76 38.467 23.664 38.478 23.567ZM24.538 24.277C26.114 28.35 27.351 32.86 28.181 37.249C26.0682 38.1455 23.7961 38.606 21.501 38.603C17.6988 38.6084 14.0043 37.3411 11.006 35.003C14.103 29.979 18.9 26.177 24.537 24.278L24.538 24.277Z" fill="white"/>
</svg>
